<svg xmlns="http://www.w3.org/2000/svg" xmlns:xlink="http://www.w3.org/1999/xlink" xmlns:inkscape="http://www.inkscape.org/namespaces/inkscape" version="1.1" width="266.96626" height="195.7525" viewBox="0 0 266.96626 195.7525">
<defs>
<clipPath id="clip_1">
<path transform="matrix(1,0,0,-1,0,195.7525)" d="M44.84625 32.2525H265.52626V194.3125H44.84625Z"/>
</clipPath>
<clipPath id="clip_2">
<path transform="matrix(1,0,0,-1,0,195.7525)" d="M44.84625 32.2525H265.52626V194.3125H44.84625Z"/>
</clipPath>
<clipPath id="clip_3">
<path transform="matrix(1,0,0,-1,0,195.7525)" d="M44.84625 32.2525H265.52626V194.3125H44.84625Z"/>
</clipPath>
<clipPath id="clip_4">
<path transform="matrix(1,0,0,-1,0,195.7525)" d="M44.84625 32.2525H265.52626V194.3125H44.84625Z"/>
</clipPath>
<clipPath id="clip_5">
<path transform="matrix(1,0,0,-1,0,195.7525)" d="M44.84625 32.2525H265.52626V194.3125H44.84625Z"/>
</clipPath>
<clipPath id="clip_6">
<path transform="matrix(1,0,0,-1,0,195.7525)" d="M44.84625 32.2525H265.52626V194.3125H44.84625Z"/>
</clipPath>
<clipPath id="clip_7">
<path transform="matrix(1,0,0,-1,0,195.7525)" d="M44.84625 32.2525H265.52626V194.3125H44.84625Z"/>
</clipPath>
<clipPath id="clip_8">
<path transform="matrix(1,0,0,-1,0,195.7525)" d="M44.84625 32.2525H265.52626V194.3125H44.84625Z"/>
</clipPath>
<clipPath id="clip_9">
<path transform="matrix(1,0,0,-1,0,195.7525)" d="M44.84625 32.2525H265.52626V194.3125H44.84625Z"/>
</clipPath>
<clipPath id="clip_10">
<path transform="matrix(1,0,0,-1,0,195.7525)" d="M44.84625 32.2525H265.52626V194.3125H44.84625Z"/>
</clipPath>
<clipPath id="clip_11">
<path transform="matrix(1,0,0,-1,54.87716,124.48468)" d="M-7-7H7V7H-7Z"/>
</clipPath>
<clipPath id="clip_12">
<path transform="matrix(1,0,0,-1,77.16807,90.79863)" d="M-7-7H7V7H-7Z"/>
</clipPath>
<clipPath id="clip_13">
<path transform="matrix(1,0,0,-1,99.45898,55.624635)" d="M-7-7H7V7H-7Z"/>
</clipPath>
<clipPath id="clip_14">
<path transform="matrix(1,0,0,-1,121.749889,51.712434)" d="M-7-7H7V7H-7Z"/>
</clipPath>
<clipPath id="clip_15">
<path transform="matrix(1,0,0,-1,144.0408,40.00826)" d="M-7-7H7V7H-7Z"/>
</clipPath>
<clipPath id="clip_16">
<path transform="matrix(1,0,0,-1,166.33171,39.315214)" d="M-7-7H7V7H-7Z"/>
</clipPath>
<clipPath id="clip_17">
<path transform="matrix(1,0,0,-1,188.62262,32.271268)" d="M-7-7H7V7H-7Z"/>
</clipPath>
<clipPath id="clip_18">
<path transform="matrix(1,0,0,-1,210.91353,29.025832)" d="M-7-7H7V7H-7Z"/>
</clipPath>
<clipPath id="clip_19">
<path transform="matrix(1,0,0,-1,233.20444,27.906018)" d="M-7-7H7V7H-7Z"/>
</clipPath>
<clipPath id="clip_20">
<path transform="matrix(1,0,0,-1,255.49535,27.95902)" d="M-7-7H7V7H-7Z"/>
</clipPath>
</defs>
<path transform="matrix(1,0,0,-1,0,195.7525)" d="M0 0H266.96626V195.7525H0Z" fill="#ffffff"/>
<path transform="matrix(1,0,0,-1,0,195.7525)" d="M44.84625 32.2525H265.52626V194.3125H44.84625Z" fill="#ffffff"/>
<path transform="matrix(1,0,0,-1,0,195.7525)" d="M54.87716 32.2525V29.2525"/>
<path transform="matrix(1,0,0,-1,0,195.7525)" stroke-width=".8" stroke-linecap="butt" stroke-linejoin="round" fill="none" stroke="#000000" d="M54.87716 32.2525V29.2525"/>
<path transform="matrix(.010000001,0,0,-.010000001,51.69747,177.59375)" d="M142 0V52H269V658L122 563V627L300 742H367V52H494V0H142Z"/>
<path transform="matrix(1,0,0,-1,0,195.7525)" d="M77.16807 32.2525V29.2525"/>
<path transform="matrix(1,0,0,-1,0,195.7525)" stroke-width=".8" stroke-linecap="butt" stroke-linejoin="round" fill="none" stroke="#000000" d="M77.16807 32.2525V29.2525"/>
<path transform="matrix(.010000001,0,0,-.010000001,73.98838,177.59375)" d="M128 555H73V685C107 703 142 717 178 727 213 737 248 742 282 742 358 742 418 723 462 687 506 650 528 600 528 537 528 465 478 380 378 281 370 273 365 268 361 264L177 80H481V170H538V0H68V53L289 274C337 322 372 367 393 408 414 449 425 492 425 537 425 586 412 624 386 652 360 680 325 694 281 694 234 694 198 682 173 659 147 636 132 601 128 555Z"/>
<path transform="matrix(1,0,0,-1,0,195.7525)" d="M99.45898 32.2525V29.2525"/>
<path transform="matrix(1,0,0,-1,0,195.7525)" stroke-width=".8" stroke-linecap="butt" stroke-linejoin="round" fill="none" stroke="#000000" d="M99.45898 32.2525V29.2525"/>
<path transform="matrix(.010000001,0,0,-.010000001,96.27929,177.59375)" d="M97 698C135 712 171 723 206 731 241 738 274 742 305 742 376 742 432 726 472 696 512 665 532 622 532 568 532 524 518 487 490 458 462 428 423 408 373 398 433 389 479 367 512 332 545 297 562 252 562 197 562 129 539 77 493 41 447 5 382-13 296-13 258-13 220-9 184-1 148 6 112 18 76 35V177H131C134 129 150 94 178 70 206 46 246 34 298 34 348 34 387 48 416 77 444 106 459 146 459 196 459 253 444 296 414 326 384 355 341 370 284 370H238V420H262C319 420 362 431 390 455 418 479 433 514 433 562 433 604 421 637 398 660 374 682 341 694 297 694 253 694 218 683 194 662 170 641 156 610 152 570H97V698Z"/>
<path transform="matrix(1,0,0,-1,0,195.7525)" d="M121.749889 32.2525V29.2525"/>
<path transform="matrix(1,0,0,-1,0,195.7525)" stroke-width=".8" stroke-linecap="butt" stroke-linejoin="round" fill="none" stroke="#000000" d="M121.749889 32.2525V29.2525"/>
<path transform="matrix(.010000001,0,0,-.010000001,118.5702,177.59375)" d="M349 247V635L100 247H349ZM564 0H232V52H349V195H31V248L350 742H447V247H586V195H447V52H564V0Z"/>
<path transform="matrix(1,0,0,-1,0,195.7525)" d="M144.0408 32.2525V29.2525"/>
<path transform="matrix(1,0,0,-1,0,195.7525)" stroke-width=".8" stroke-linecap="butt" stroke-linejoin="round" fill="none" stroke="#000000" d="M144.0408 32.2525V29.2525"/>
<path transform="matrix(.010000001,0,0,-.010000001,140.86112,177.59375)" d="M503 729V649H169V440C185 452 205 460 228 466 250 472 276 475 304 475 382 475 444 453 490 409 536 365 559 306 559 231 559 153 536 93 490 51 444 8 379-13 296-13 262-13 228-9 193-1 157 6 121 18 85 35V177H140C143 130 158 94 184 70 210 46 248 34 296 34 347 34 386 51 414 85 442 119 456 167 456 231 456 294 442 342 415 376 387 410 348 427 296 427 266 427 240 421 218 411 196 401 176 385 159 363H117V729H503Z"/>
<path transform="matrix(1,0,0,-1,0,195.7525)" d="M166.33171 32.2525V29.2525"/>
<path transform="matrix(1,0,0,-1,0,195.7525)" stroke-width=".8" stroke-linecap="butt" stroke-linejoin="round" fill="none" stroke="#000000" d="M166.33171 32.2525V29.2525"/>
<path transform="matrix(.010000001,0,0,-.010000001,163.15203,177.59375)" d="M327 34C373 34 408 50 433 84 457 118 470 166 470 230 470 293 457 341 433 375 408 409 373 426 327 426 280 426 244 409 220 377 196 344 184 297 184 236 184 171 196 121 221 86 245 51 281 34 327 34ZM168 401C190 425 215 444 243 456 271 468 302 474 338 474 410 474 468 452 510 408 552 364 573 305 573 230 573 156 550 97 505 53 459 9 399-13 323-13 241-13 177 17 133 78 89 139 67 227 67 341 67 468 93 567 145 637 197 707 271 742 367 742 393 742 420 739 448 735 476 730 505 723 535 713V593H480C476 625 463 650 442 668 421 685 393 694 357 694 293 694 246 670 215 622 184 574 168 500 168 401Z"/>
<path transform="matrix(1,0,0,-1,0,195.7525)" d="M188.62262 32.2525V29.2525"/>
<path transform="matrix(1,0,0,-1,0,195.7525)" stroke-width=".8" stroke-linecap="butt" stroke-linejoin="round" fill="none" stroke="#000000" d="M188.62262 32.2525V29.2525"/>
<path transform="matrix(.010000001,0,0,-.010000001,185.44293,177.59375)" d="M564 679 279 0H206L478 649H141V559H84V729H564V679Z"/>
<path transform="matrix(1,0,0,-1,0,195.7525)" d="M210.91353 32.2525V29.2525"/>
<path transform="matrix(1,0,0,-1,0,195.7525)" stroke-width=".8" stroke-linecap="butt" stroke-linejoin="round" fill="none" stroke="#000000" d="M210.91353 32.2525V29.2525"/>
<path transform="matrix(.010000001,0,0,-.010000001,207.73384,177.59375)" d="M466 199C466 251 453 291 427 320 401 349 364 364 318 364 271 364 235 349 209 320 183 291 170 251 170 199 170 147 183 106 209 77 235 48 271 34 318 34 364 34 401 48 427 77 453 106 466 147 466 199ZM446 553C446 597 434 632 412 657 389 681 358 694 318 694 278 694 246 681 224 657 201 632 190 597 190 553 190 508 201 473 224 449 246 424 278 412 318 412 358 412 389 424 412 449 434 473 446 508 446 553ZM393 388C448 380 491 360 522 327 553 293 569 251 569 199 569 131 547 78 504 42 460 5 398-13 318-13 237-13 175 5 132 42 88 78 67 131 67 199 67 251 82 293 113 327 144 360 187 380 243 388 193 396 156 415 130 444 104 472 91 509 91 553 91 611 111 657 151 691 191 725 247 742 318 742 388 742 444 725 484 691 524 657 545 611 545 553 545 509 531 472 505 444 479 415 441 396 393 388Z"/>
<path transform="matrix(1,0,0,-1,0,195.7525)" d="M233.20444 32.2525V29.2525"/>
<path transform="matrix(1,0,0,-1,0,195.7525)" stroke-width=".8" stroke-linecap="butt" stroke-linejoin="round" fill="none" stroke="#000000" d="M233.20444 32.2525V29.2525"/>
<path transform="matrix(.010000001,0,0,-.010000001,230.02475,177.59375)" d="M468 327C446 302 420 284 392 272 364 260 332 254 297 254 224 254 167 275 125 319 83 363 63 422 63 498 63 572 85 631 131 675 176 719 237 742 313 742 395 742 459 711 503 650 547 588 569 501 569 387 569 259 542 161 490 91 438 21 364-13 269-13 243-13 216-10 188-6 160-2 131 5 101 15V136H156C160 103 172 78 194 60 215 42 243 34 279 34 342 34 389 57 420 105 450 153 466 227 468 327ZM309 694C263 694 227 677 203 643 178 609 166 561 166 498 166 434 178 386 203 352 227 318 263 302 309 302 355 302 390 318 415 351 439 383 452 430 452 492 452 556 439 606 415 641 390 676 355 694 309 694Z"/>
<path transform="matrix(1,0,0,-1,0,195.7525)" d="M255.49535 32.2525V29.2525"/>
<path transform="matrix(1,0,0,-1,0,195.7525)" stroke-width=".8" stroke-linecap="butt" stroke-linejoin="round" fill="none" stroke="#000000" d="M255.49535 32.2525V29.2525"/>
<path transform="matrix(.010000001,0,0,-.010000001,249.13597,177.59375)" d="M142 0V52H269V658L122 563V627L300 742H367V52H494V0H142Z"/>
<path transform="matrix(.010000001,0,0,-.010000001,255.49597,177.59375)" d="M318 34C368 34 405 61 430 116 454 170 467 253 467 364 467 474 454 557 430 612 405 666 368 694 318 694 268 694 230 666 206 612 181 557 169 474 169 364 169 253 181 170 206 116 230 61 268 34 318 34ZM318-13C238-13 176 20 132 86 88 152 66 244 66 364 66 483 88 576 132 642 176 708 238 742 318 742 397 742 459 708 503 642 547 576 570 483 570 364 570 244 547 152 503 86 459 20 397-13 318-13Z"/>
<path transform="matrix(.011000001,0,0,-.011000001,101.41281,192.03125)" d="M49 0V52H147V677H49V729H236L673 154V677H575V729H831V677H733V-13H674L207 600V52H305V0H49Z"/>
<path transform="matrix(.011000001,0,0,-.011000001,111.03781,192.03125)" d="M354 519H522V52H607V0H432V92C415 57 393 31 367 13 341-4 310-13 276-13 218-13 175 3 148 35 121 67 108 119 108 189V467H27V519H198V217C198 153 205 110 221 87 237 63 264 52 304 52 346 52 377 67 399 98 421 128 432 173 432 231V467H354V519Z"/>
<path transform="matrix(.011000001,0,0,-.011000001,118.12181,192.03125)" d="M518 418C535 456 557 484 584 504 611 523 642 533 678 533 732 533 773 516 800 482 826 448 840 398 840 330V52H921V0H672V52H750V320C750 372 742 410 726 433 710 455 685 467 649 467 609 467 578 451 557 421 536 391 526 347 526 289V52H604V0H358V52H436V323C436 375 428 412 412 434 396 456 371 467 335 467 295 467 264 451 243 421 222 391 212 347 212 289V52H290V0H41V52H122V468H36V519H212V427C228 461 249 488 275 506 301 524 330 533 363 533 403 533 436 523 463 503 490 483 508 454 518 418Z"/>
<path transform="matrix(.011000001,0,0,-.011000001,128.5498,192.03125)" d="M115 52V708H29V760H205V438C222 470 244 494 272 510 299 525 333 533 373 533 437 533 489 507 529 457 569 407 590 341 590 260 590 178 569 112 529 62 489 12 437-13 373-13 333-13 299-5 272 9 244 24 222 48 205 81V0H29V52H115ZM205 234C205 171 217 123 241 91 265 58 299 42 345 42 391 42 425 60 449 97 473 133 485 188 485 260 485 332 473 386 449 422 425 458 391 477 345 477 299 477 265 460 241 427 217 394 205 347 205 285V234Z"/>
<path transform="matrix(.011000001,0,0,-.011000001,135.58982,192.03125)" d="M542 250H155V246C155 176 168 123 194 87 220 51 259 34 311 34 350 34 382 44 408 65 433 85 451 116 461 157H533C519 100 492 57 454 29 415 1 364-13 302-13 226-13 165 11 119 61 73 111 50 177 50 260 50 342 72 408 118 458 163 508 222 533 296 533 374 533 435 508 477 460 519 412 540 342 542 250ZM436 302C434 362 421 408 397 439 373 469 340 485 296 485 254 485 222 469 198 438 174 407 160 362 155 302H436Z"/>
<path transform="matrix(.011000001,0,0,-.011000001,142.1018,192.03125)" d="M478 520V390H426C424 416 417 435 405 448 392 460 373 467 349 467 305 467 271 451 247 421 223 390 212 346 212 289V52H316V0H41V52H122V468H36V519H212V427C229 463 251 489 279 507 307 524 341 533 381 533 395 533 411 531 427 529 443 527 460 524 478 520Z"/>
<path transform="matrix(.011000001,0,0,-.011000001,147.35982,192.03125)" d=""/>
<path transform="matrix(.011000001,0,0,-.011000001,150.85782,192.03125)" d="M301 34C349 34 385 53 410 91 434 129 447 185 447 259 447 333 434 390 410 428 385 466 349 485 301 485 253 485 216 466 192 428 167 390 155 333 155 259 155 185 167 129 192 91 216 53 253 34 301 34ZM301-13C225-13 165 11 119 61 73 111 50 177 50 260 50 342 72 408 118 458 164 508 225 533 301 533 377 533 437 508 483 458 529 408 552 342 552 260 552 177 529 111 483 61 437 11 377-13 301-13Z"/>
<path transform="matrix(.011000001,0,0,-.011000001,157.47982,192.03125)" d="M430 637H383C382 661 375 680 362 693 348 705 329 712 303 712 269 712 246 702 232 684 218 666 212 633 212 586V519H357V467H212V52H327V0H36V52H122V467H36V519H122V584C122 642 137 685 167 715 197 745 241 760 300 760 322 760 343 758 365 754 387 750 408 744 430 736V637Z"/>
<path transform="matrix(.011000001,0,0,-.011000001,161.54982,192.03125)" d=""/>
<path transform="matrix(.011000001,0,0,-.011000001,165.04782,192.03125)" d="M93 35V201H149C150 145 166 104 197 78 227 51 274 38 336 38 394 38 438 49 468 72 498 95 514 129 514 173 514 208 504 235 486 254 468 272 429 291 370 309L274 338C204 359 154 385 126 417 98 448 84 491 84 547 84 609 106 657 150 691 194 725 255 742 335 742 369 742 406 738 446 731 486 723 529 713 575 699V544H520C514 595 497 632 468 655 439 678 395 690 337 690 285 690 246 679 219 658 192 637 179 607 179 567 179 532 189 505 209 485 229 465 272 445 338 426L428 399C494 379 541 353 569 323 597 292 612 251 612 199 612 128 589 75 544 40 498 4 431-13 342-13 302-13 261-9 219-1 177 6 135 18 93 35Z"/>
<path transform="matrix(.011000001,0,0,-.011000001,172.58283,192.03125)" d="M354 519H522V52H607V0H432V92C415 57 393 31 367 13 341-4 310-13 276-13 218-13 175 3 148 35 121 67 108 119 108 189V467H27V519H198V217C198 153 205 110 221 87 237 63 264 52 304 52 346 52 377 67 399 98 421 128 432 173 432 231V467H354V519Z"/>
<path transform="matrix(.011000001,0,0,-.011000001,179.66681,192.03125)" d="M115 52V708H29V760H205V438C222 470 244 494 272 510 299 525 333 533 373 533 437 533 489 507 529 457 569 407 590 341 590 260 590 178 569 112 529 62 489 12 437-13 373-13 333-13 299-5 272 9 244 24 222 48 205 81V0H29V52H115ZM205 234C205 171 217 123 241 91 265 58 299 42 345 42 391 42 425 60 449 97 473 133 485 188 485 260 485 332 473 386 449 422 425 458 391 477 345 477 299 477 265 460 241 427 217 394 205 347 205 285V234Z"/>
<path transform="matrix(.011000001,0,0,-.011000001,186.70682,192.03125)" d="M56 29V150H108C109 111 121 82 144 63 167 43 201 34 246 34 286 34 317 41 338 57 359 72 370 94 370 123 370 145 362 164 347 178 331 192 299 207 249 223L184 245C139 259 107 277 87 299 67 320 57 347 57 381 57 428 74 465 109 492 144 519 192 533 254 533 281 533 310 529 340 522 370 515 402 505 434 491V378H382C380 411 369 437 347 456 325 475 295 485 257 485 219 485 190 478 171 465 151 451 142 431 142 405 142 383 149 365 164 352 178 339 208 326 252 312L323 290C372 274 407 255 429 232 451 209 462 180 462 144 462 94 443 56 405 28 367 0 316-13 250-13 216-13 184-9 152-3 120 3 88 14 56 29Z"/>
<path transform="matrix(.011000001,0,0,-.011000001,192.34983,192.03125)" d="M542 250H155V246C155 176 168 123 194 87 220 51 259 34 311 34 350 34 382 44 408 65 433 85 451 116 461 157H533C519 100 492 57 454 29 415 1 364-13 302-13 226-13 165 11 119 61 73 111 50 177 50 260 50 342 72 408 118 458 163 508 222 533 296 533 374 533 435 508 477 460 519 412 540 342 542 250ZM436 302C434 362 421 408 397 439 373 469 340 485 296 485 254 485 222 469 198 438 174 407 160 362 155 302H436Z"/>
<path transform="matrix(.011000001,0,0,-.011000001,198.86182,192.03125)" d="M108 467H29V519H108V680H198V519H367V467H198V137C198 93 202 64 211 52 219 40 235 34 258 34 281 34 298 41 309 55 319 69 325 91 326 122H394C391 74 378 40 355 19 332-2 297-13 250-13 198-13 161-1 140 21 118 43 108 82 108 137V467Z"/>
<path transform="matrix(.011000001,0,0,-.011000001,203.28382,192.03125)" d="M56 29V150H108C109 111 121 82 144 63 167 43 201 34 246 34 286 34 317 41 338 57 359 72 370 94 370 123 370 145 362 164 347 178 331 192 299 207 249 223L184 245C139 259 107 277 87 299 67 320 57 347 57 381 57 428 74 465 109 492 144 519 192 533 254 533 281 533 310 529 340 522 370 515 402 505 434 491V378H382C380 411 369 437 347 456 325 475 295 485 257 485 219 485 190 478 171 465 151 451 142 431 142 405 142 383 149 365 164 352 178 339 208 326 252 312L323 290C372 274 407 255 429 232 451 209 462 180 462 144 462 94 443 56 405 28 367 0 316-13 250-13 216-13 184-9 152-3 120 3 88 14 56 29Z"/>
<g clip-path="url(#clip_1)">
<path transform="matrix(1,0,0,-1,0,195.7525)" stroke-width=".5" stroke-linecap="square" stroke-linejoin="round" fill="none" stroke="#b0b0b0" stroke-opacity=".3" d="M44.84625 35.48167H265.52626"/>
</g>
<path transform="matrix(1,0,0,-1,0,195.7525)" d="M44.84625 35.48167H41.84625"/>
<path transform="matrix(1,0,0,-1,0,195.7525)" stroke-width=".8" stroke-linecap="butt" stroke-linejoin="round" fill="none" stroke="#000000" d="M44.84625 35.48167H41.84625"/>
<path transform="matrix(.010000001,0,0,-.010000001,16.080626,164.0677)" d="M318 34C368 34 405 61 430 116 454 170 467 253 467 364 467 474 454 557 430 612 405 666 368 694 318 694 268 694 230 666 206 612 181 557 169 474 169 364 169 253 181 170 206 116 230 61 268 34 318 34ZM318-13C238-13 176 20 132 86 88 152 66 244 66 364 66 483 88 576 132 642 176 708 238 742 318 742 397 742 459 708 503 642 547 576 570 483 570 364 570 244 547 152 503 86 459 20 397-13 318-13Z"/>
<path transform="matrix(.010000001,0,0,-.010000001,22.440627,164.0677)" d="M94 51C94 69 100 84 112 97 124 109 140 116 159 116 177 116 192 109 205 97 217 84 224 69 224 51 224 33 217 17 205 5 192-7 177-13 159-13 140-13 124-7 112 5 100 17 94 32 94 51Z"/>
<path transform="matrix(.010000001,0,0,-.010000001,25.620627,164.0677)" d="M142 0V52H269V658L122 563V627L300 742H367V52H494V0H142Z"/>
<path transform="matrix(.010000001,0,0,-.010000001,31.980628,164.0677)" d="M503 729V649H169V440C185 452 205 460 228 466 250 472 276 475 304 475 382 475 444 453 490 409 536 365 559 306 559 231 559 153 536 93 490 51 444 8 379-13 296-13 262-13 228-9 193-1 157 6 121 18 85 35V177H140C143 130 158 94 184 70 210 46 248 34 296 34 347 34 386 51 414 85 442 119 456 167 456 231 456 294 442 342 415 376 387 410 348 427 296 427 266 427 240 421 218 411 196 401 176 385 159 363H117V729H503Z"/>
<g clip-path="url(#clip_2)">
<path transform="matrix(1,0,0,-1,0,195.7525)" stroke-width=".5" stroke-linecap="square" stroke-linejoin="round" fill="none" stroke="#b0b0b0" stroke-opacity=".3" d="M44.84625 63.88897H265.52626"/>
</g>
<path transform="matrix(1,0,0,-1,0,195.7525)" d="M44.84625 63.88897H41.84625"/>
<path transform="matrix(1,0,0,-1,0,195.7525)" stroke-width=".8" stroke-linecap="butt" stroke-linejoin="round" fill="none" stroke="#000000" d="M44.84625 63.88897H41.84625"/>
<path transform="matrix(.010000001,0,0,-.010000001,16.080626,135.6604)" d="M318 34C368 34 405 61 430 116 454 170 467 253 467 364 467 474 454 557 430 612 405 666 368 694 318 694 268 694 230 666 206 612 181 557 169 474 169 364 169 253 181 170 206 116 230 61 268 34 318 34ZM318-13C238-13 176 20 132 86 88 152 66 244 66 364 66 483 88 576 132 642 176 708 238 742 318 742 397 742 459 708 503 642 547 576 570 483 570 364 570 244 547 152 503 86 459 20 397-13 318-13Z"/>
<path transform="matrix(.010000001,0,0,-.010000001,22.440627,135.6604)" d="M94 51C94 69 100 84 112 97 124 109 140 116 159 116 177 116 192 109 205 97 217 84 224 69 224 51 224 33 217 17 205 5 192-7 177-13 159-13 140-13 124-7 112 5 100 17 94 32 94 51Z"/>
<path transform="matrix(.010000001,0,0,-.010000001,25.620627,135.6604)" d="M128 555H73V685C107 703 142 717 178 727 213 737 248 742 282 742 358 742 418 723 462 687 506 650 528 600 528 537 528 465 478 380 378 281 370 273 365 268 361 264L177 80H481V170H538V0H68V53L289 274C337 322 372 367 393 408 414 449 425 492 425 537 425 586 412 624 386 652 360 680 325 694 281 694 234 694 198 682 173 659 147 636 132 601 128 555Z"/>
<path transform="matrix(.010000001,0,0,-.010000001,31.980628,135.6604)" d="M318 34C368 34 405 61 430 116 454 170 467 253 467 364 467 474 454 557 430 612 405 666 368 694 318 694 268 694 230 666 206 612 181 557 169 474 169 364 169 253 181 170 206 116 230 61 268 34 318 34ZM318-13C238-13 176 20 132 86 88 152 66 244 66 364 66 483 88 576 132 642 176 708 238 742 318 742 397 742 459 708 503 642 547 576 570 483 570 364 570 244 547 152 503 86 459 20 397-13 318-13Z"/>
<g clip-path="url(#clip_3)">
<path transform="matrix(1,0,0,-1,0,195.7525)" stroke-width=".5" stroke-linecap="square" stroke-linejoin="round" fill="none" stroke="#b0b0b0" stroke-opacity=".3" d="M44.84625 92.296268H265.52626"/>
</g>
<path transform="matrix(1,0,0,-1,0,195.7525)" d="M44.84625 92.296268H41.84625"/>
<path transform="matrix(1,0,0,-1,0,195.7525)" stroke-width=".8" stroke-linecap="butt" stroke-linejoin="round" fill="none" stroke="#000000" d="M44.84625 92.296268H41.84625"/>
<path transform="matrix(.010000001,0,0,-.010000001,16.080626,107.25311)" d="M318 34C368 34 405 61 430 116 454 170 467 253 467 364 467 474 454 557 430 612 405 666 368 694 318 694 268 694 230 666 206 612 181 557 169 474 169 364 169 253 181 170 206 116 230 61 268 34 318 34ZM318-13C238-13 176 20 132 86 88 152 66 244 66 364 66 483 88 576 132 642 176 708 238 742 318 742 397 742 459 708 503 642 547 576 570 483 570 364 570 244 547 152 503 86 459 20 397-13 318-13Z"/>
<path transform="matrix(.010000001,0,0,-.010000001,22.440627,107.25311)" d="M94 51C94 69 100 84 112 97 124 109 140 116 159 116 177 116 192 109 205 97 217 84 224 69 224 51 224 33 217 17 205 5 192-7 177-13 159-13 140-13 124-7 112 5 100 17 94 32 94 51Z"/>
<path transform="matrix(.010000001,0,0,-.010000001,25.620627,107.25311)" d="M128 555H73V685C107 703 142 717 178 727 213 737 248 742 282 742 358 742 418 723 462 687 506 650 528 600 528 537 528 465 478 380 378 281 370 273 365 268 361 264L177 80H481V170H538V0H68V53L289 274C337 322 372 367 393 408 414 449 425 492 425 537 425 586 412 624 386 652 360 680 325 694 281 694 234 694 198 682 173 659 147 636 132 601 128 555Z"/>
<path transform="matrix(.010000001,0,0,-.010000001,31.980628,107.25311)" d="M503 729V649H169V440C185 452 205 460 228 466 250 472 276 475 304 475 382 475 444 453 490 409 536 365 559 306 559 231 559 153 536 93 490 51 444 8 379-13 296-13 262-13 228-9 193-1 157 6 121 18 85 35V177H140C143 130 158 94 184 70 210 46 248 34 296 34 347 34 386 51 414 85 442 119 456 167 456 231 456 294 442 342 415 376 387 410 348 427 296 427 266 427 240 421 218 411 196 401 176 385 159 363H117V729H503Z"/>
<g clip-path="url(#clip_4)">
<path transform="matrix(1,0,0,-1,0,195.7525)" stroke-width=".5" stroke-linecap="square" stroke-linejoin="round" fill="none" stroke="#b0b0b0" stroke-opacity=".3" d="M44.84625 120.70356H265.52626"/>
</g>
<path transform="matrix(1,0,0,-1,0,195.7525)" d="M44.84625 120.70356H41.84625"/>
<path transform="matrix(1,0,0,-1,0,195.7525)" stroke-width=".8" stroke-linecap="butt" stroke-linejoin="round" fill="none" stroke="#000000" d="M44.84625 120.70356H41.84625"/>
<path transform="matrix(.010000001,0,0,-.010000001,16.080626,78.84582)" d="M318 34C368 34 405 61 430 116 454 170 467 253 467 364 467 474 454 557 430 612 405 666 368 694 318 694 268 694 230 666 206 612 181 557 169 474 169 364 169 253 181 170 206 116 230 61 268 34 318 34ZM318-13C238-13 176 20 132 86 88 152 66 244 66 364 66 483 88 576 132 642 176 708 238 742 318 742 397 742 459 708 503 642 547 576 570 483 570 364 570 244 547 152 503 86 459 20 397-13 318-13Z"/>
<path transform="matrix(.010000001,0,0,-.010000001,22.440627,78.84582)" d="M94 51C94 69 100 84 112 97 124 109 140 116 159 116 177 116 192 109 205 97 217 84 224 69 224 51 224 33 217 17 205 5 192-7 177-13 159-13 140-13 124-7 112 5 100 17 94 32 94 51Z"/>
<path transform="matrix(.010000001,0,0,-.010000001,25.620627,78.84582)" d="M97 698C135 712 171 723 206 731 241 738 274 742 305 742 376 742 432 726 472 696 512 665 532 622 532 568 532 524 518 487 490 458 462 428 423 408 373 398 433 389 479 367 512 332 545 297 562 252 562 197 562 129 539 77 493 41 447 5 382-13 296-13 258-13 220-9 184-1 148 6 112 18 76 35V177H131C134 129 150 94 178 70 206 46 246 34 298 34 348 34 387 48 416 77 444 106 459 146 459 196 459 253 444 296 414 326 384 355 341 370 284 370H238V420H262C319 420 362 431 390 455 418 479 433 514 433 562 433 604 421 637 398 660 374 682 341 694 297 694 253 694 218 683 194 662 170 641 156 610 152 570H97V698Z"/>
<path transform="matrix(.010000001,0,0,-.010000001,31.980628,78.84582)" d="M318 34C368 34 405 61 430 116 454 170 467 253 467 364 467 474 454 557 430 612 405 666 368 694 318 694 268 694 230 666 206 612 181 557 169 474 169 364 169 253 181 170 206 116 230 61 268 34 318 34ZM318-13C238-13 176 20 132 86 88 152 66 244 66 364 66 483 88 576 132 642 176 708 238 742 318 742 397 742 459 708 503 642 547 576 570 483 570 364 570 244 547 152 503 86 459 20 397-13 318-13Z"/>
<g clip-path="url(#clip_5)">
<path transform="matrix(1,0,0,-1,0,195.7525)" stroke-width=".5" stroke-linecap="square" stroke-linejoin="round" fill="none" stroke="#b0b0b0" stroke-opacity=".3" d="M44.84625 149.11086H265.52626"/>
</g>
<path transform="matrix(1,0,0,-1,0,195.7525)" d="M44.84625 149.11086H41.84625"/>
<path transform="matrix(1,0,0,-1,0,195.7525)" stroke-width=".8" stroke-linecap="butt" stroke-linejoin="round" fill="none" stroke="#000000" d="M44.84625 149.11086H41.84625"/>
<path transform="matrix(.010000001,0,0,-.010000001,16.080626,50.438524)" d="M318 34C368 34 405 61 430 116 454 170 467 253 467 364 467 474 454 557 430 612 405 666 368 694 318 694 268 694 230 666 206 612 181 557 169 474 169 364 169 253 181 170 206 116 230 61 268 34 318 34ZM318-13C238-13 176 20 132 86 88 152 66 244 66 364 66 483 88 576 132 642 176 708 238 742 318 742 397 742 459 708 503 642 547 576 570 483 570 364 570 244 547 152 503 86 459 20 397-13 318-13Z"/>
<path transform="matrix(.010000001,0,0,-.010000001,22.440627,50.438524)" d="M94 51C94 69 100 84 112 97 124 109 140 116 159 116 177 116 192 109 205 97 217 84 224 69 224 51 224 33 217 17 205 5 192-7 177-13 159-13 140-13 124-7 112 5 100 17 94 32 94 51Z"/>
<path transform="matrix(.010000001,0,0,-.010000001,25.620627,50.438524)" d="M97 698C135 712 171 723 206 731 241 738 274 742 305 742 376 742 432 726 472 696 512 665 532 622 532 568 532 524 518 487 490 458 462 428 423 408 373 398 433 389 479 367 512 332 545 297 562 252 562 197 562 129 539 77 493 41 447 5 382-13 296-13 258-13 220-9 184-1 148 6 112 18 76 35V177H131C134 129 150 94 178 70 206 46 246 34 298 34 348 34 387 48 416 77 444 106 459 146 459 196 459 253 444 296 414 326 384 355 341 370 284 370H238V420H262C319 420 362 431 390 455 418 479 433 514 433 562 433 604 421 637 398 660 374 682 341 694 297 694 253 694 218 683 194 662 170 641 156 610 152 570H97V698Z"/>
<path transform="matrix(.010000001,0,0,-.010000001,31.980628,50.438524)" d="M503 729V649H169V440C185 452 205 460 228 466 250 472 276 475 304 475 382 475 444 453 490 409 536 365 559 306 559 231 559 153 536 93 490 51 444 8 379-13 296-13 262-13 228-9 193-1 157 6 121 18 85 35V177H140C143 130 158 94 184 70 210 46 248 34 296 34 347 34 386 51 414 85 442 119 456 167 456 231 456 294 442 342 415 376 387 410 348 427 296 427 266 427 240 421 218 411 196 401 176 385 159 363H117V729H503Z"/>
<g clip-path="url(#clip_6)">
<path transform="matrix(1,0,0,-1,0,195.7525)" stroke-width=".5" stroke-linecap="square" stroke-linejoin="round" fill="none" stroke="#b0b0b0" stroke-opacity=".3" d="M44.84625 177.51816H265.52626"/>
</g>
<path transform="matrix(1,0,0,-1,0,195.7525)" d="M44.84625 177.51816H41.84625"/>
<path transform="matrix(1,0,0,-1,0,195.7525)" stroke-width=".8" stroke-linecap="butt" stroke-linejoin="round" fill="none" stroke="#000000" d="M44.84625 177.51816H41.84625"/>
<path transform="matrix(.010000001,0,0,-.010000001,16.080626,22.03122)" d="M318 34C368 34 405 61 430 116 454 170 467 253 467 364 467 474 454 557 430 612 405 666 368 694 318 694 268 694 230 666 206 612 181 557 169 474 169 364 169 253 181 170 206 116 230 61 268 34 318 34ZM318-13C238-13 176 20 132 86 88 152 66 244 66 364 66 483 88 576 132 642 176 708 238 742 318 742 397 742 459 708 503 642 547 576 570 483 570 364 570 244 547 152 503 86 459 20 397-13 318-13Z"/>
<path transform="matrix(.010000001,0,0,-.010000001,22.440627,22.03122)" d="M94 51C94 69 100 84 112 97 124 109 140 116 159 116 177 116 192 109 205 97 217 84 224 69 224 51 224 33 217 17 205 5 192-7 177-13 159-13 140-13 124-7 112 5 100 17 94 32 94 51Z"/>
<path transform="matrix(.010000001,0,0,-.010000001,25.620627,22.03122)" d="M349 247V635L100 247H349ZM564 0H232V52H349V195H31V248L350 742H447V247H586V195H447V52H564V0Z"/>
<path transform="matrix(.010000001,0,0,-.010000001,31.980628,22.03122)" d="M318 34C368 34 405 61 430 116 454 170 467 253 467 364 467 474 454 557 430 612 405 666 368 694 318 694 268 694 230 666 206 612 181 557 169 474 169 364 169 253 181 170 206 116 230 61 268 34 318 34ZM318-13C238-13 176 20 132 86 88 152 66 244 66 364 66 483 88 576 132 642 176 708 238 742 318 742 397 742 459 708 503 642 547 576 570 483 570 364 570 244 547 152 503 86 459 20 397-13 318-13Z"/>
<path transform="matrix(0,-.011000001,-.011000001,-0,9.799375,117.69656)" d="M247 52H338C432 52 505 79 556 133 606 187 632 264 632 365 632 466 606 543 556 597 505 650 432 677 338 677H247V52ZM55 0V52H148V677H55V729H345C471 729 569 697 639 633 709 569 744 479 744 365 744 250 708 160 638 96 568 32 470 0 345 0H55Z"/>
<path transform="matrix(0,-.011000001,-.011000001,-0,9.799375,108.874568)" d="M55 0V52H148V677H55V729H642V567H582V669H247V425H486V516H546V274H486V365H247V60H590V162H650V0H55Z"/>
<path transform="matrix(0,-.011000001,-.011000001,-0,9.799375,100.84456)" d="M640 511C628 572 605 617 569 646 533 675 482 690 418 690 334 690 271 663 230 609 188 555 168 473 168 364 168 256 189 175 232 120 274 65 337 38 420 38 456 38 491 42 525 51 559 60 591 74 621 93V281H484V333H720V61C676 35 630 17 580 5 530-7 476-13 420-13 310-13 221 21 155 89 89 157 56 249 56 364 56 479 89 571 155 639 221 707 311 742 424 742 465 742 508 737 553 727 597 717 645 703 695 684V511H640Z"/>
<path transform="matrix(0,-.011000001,-.011000001,-0,9.799375,92.05556)" d=""/>
<path transform="matrix(0,-.011000001,-.011000001,-0,9.799375,88.557559)" d="M200 264H468L334 611 200 264ZM-5 0V52H58L318 729H400L660 52H732V0H467V52H548L487 212H180L119 52H199V0H-5Z"/>
<path transform="matrix(0,-.011000001,-.011000001,-0,9.799375,80.615558)" d="M140 677H47V729H332V677H239V300C239 206 254 141 284 105 314 68 367 50 442 50 516 50 569 68 599 105 629 141 645 206 645 300V677H552V729H798V677H705V290C705 179 683 101 641 55 598 9 526-13 424-13 322-13 249 10 205 56 161 102 140 180 140 290V677Z"/>
<path transform="matrix(0,-.011000001,-.011000001,-0,9.799375,71.34256)" d="M247 371H376C424 371 461 384 487 410 512 436 525 474 525 524 525 574 512 612 487 638 461 664 424 677 376 677H247V371ZM55 0V52H148V677H55V729H400C472 729 530 710 573 673 615 636 637 586 637 524 637 461 615 411 573 374 530 337 472 319 400 319H247V52H360V0H55Z"/>
<path transform="matrix(0,-.011000001,-.011000001,-0,9.799375,63.93956)" d="M479 362C501 356 521 345 538 330 554 315 569 294 582 268L688 52H777V0H605L491 232C469 276 449 305 431 319 413 332 388 339 356 339H247V52H350V0H55V52H148V677H55V729H425C495 729 550 712 589 678 627 644 647 596 647 534 647 484 633 444 605 416 577 387 535 369 479 362ZM247 391H391C440 391 476 402 500 426 523 449 535 485 535 534 535 582 523 618 500 642 476 665 440 677 391 677H247V391Z"/>
<path transform="matrix(0,-.011000001,-.011000001,-0,9.799375,55.65656)" d="M705 193C683 125 647 73 597 39 546 4 482-13 405-13 357-13 312-5 272 11 231 27 195 50 164 82 127 118 100 160 82 206 64 252 56 305 56 364 56 477 88 568 154 638 219 707 305 742 413 742 453 742 495 736 540 726 584 716 633 700 685 679V511H630C618 572 593 617 557 646 521 675 470 690 405 690 327 690 268 662 228 607 188 551 168 470 168 364 168 257 188 176 228 121 268 65 327 38 405 38 459 38 503 51 539 77 574 103 599 141 615 193H705Z"/>
<g clip-path="url(#clip_7)">
<g>
<path transform="matrix(1,0,0,-1,0,195.7525)" d="M54.87716 174.46736V121.08499H255.49535V174.46736H54.87716Z" fill="#0072b2" fill-opacity=".15"/>
<path transform="matrix(1,0,0,-1,0,195.7525)" stroke-width="1" stroke-linecap="butt" stroke-linejoin="round" fill="none" stroke="#0072b2" stroke-opacity=".15" d="M54.87716 174.46736V121.08499H255.49535V174.46736H54.87716Z"/>
</g>
</g>
<g clip-path="url(#clip_8)">
<g>
<path transform="matrix(1,0,0,-1,0,195.7525)" d="M54.87716 102.91678V39.618864L77.16807 85.16291 99.45898 120.03472 121.749889 126.36964 144.0408 138.34857 166.33171 138.20182 188.62262 142.93865 210.91353 151.24642 233.20444 149.44388 255.49535 148.64083V186.94614L233.20444 186.2491 210.91353 182.20693 188.62262 184.02382 166.33171 174.67276 144.0408 173.13991 121.749889 161.7105 99.45898 160.22101 77.16807 124.74483 54.87716 102.91678Z" fill="#009e73" fill-opacity=".15"/>
<path transform="matrix(1,0,0,-1,0,195.7525)" stroke-width="1" stroke-linecap="butt" stroke-linejoin="round" fill="none" stroke="#009e73" stroke-opacity=".15" d="M54.87716 102.91678V39.618864L77.16807 85.16291 99.45898 120.03472 121.749889 126.36964 144.0408 138.34857 166.33171 138.20182 188.62262 142.93865 210.91353 151.24642 233.20444 149.44388 255.49535 148.64083V186.94614L233.20444 186.2491 210.91353 182.20693 188.62262 184.02382 166.33171 174.67276 144.0408 173.13991 121.749889 161.7105 99.45898 160.22101 77.16807 124.74483 54.87716 102.91678Z"/>
</g>
</g>
<g clip-path="url(#clip_9)">
<path transform="matrix(1,0,0,-1,0,195.7525)" stroke-width="1" stroke-linecap="butt" stroke-dasharray="3.7,1.6" stroke-linejoin="round" fill="none" stroke="#0072b2" d="M54.87716 147.77617H255.49535"/>
</g>
<g clip-path="url(#clip_10)">
<path transform="matrix(1,0,0,-1,0,195.7525)" stroke-width="1" stroke-linecap="square" stroke-linejoin="round" fill="none" stroke="#009e73" d="M54.87716 71.26782 77.16807 104.95387 99.45898 140.12787 121.749889 144.04007 144.0408 155.74423 166.33171 156.43729 188.62262 163.48123 210.91353 166.72667 233.20444 167.84648 255.49535 167.79347"/>
<g clip-path="url(#clip_11)">
<path transform="matrix(1,0,0,-1,54.87716,124.48468)" d="M0-2C.530406-2 1.03916-1.789267 1.414214-1.414214 1.789267-1.03916 2-.530406 2 0 2 .530406 1.789267 1.03916 1.414214 1.414214 1.03916 1.789267 .530406 2 0 2-.530406 2-1.03916 1.789267-1.414214 1.414214-1.789267 1.03916-2 .530406-2 0-2-.530406-1.789267-1.03916-1.414214-1.414214-1.03916-1.789267-.530406-2 0-2Z" fill="#009e73"/>
<path transform="matrix(1,0,0,-1,54.87716,124.48468)" stroke-width="1" stroke-linecap="butt" stroke-linejoin="round" fill="none" stroke="#009e73" d="M0-2C.530406-2 1.03916-1.789267 1.414214-1.414214 1.789267-1.03916 2-.530406 2 0 2 .530406 1.789267 1.03916 1.414214 1.414214 1.03916 1.789267 .530406 2 0 2-.530406 2-1.03916 1.789267-1.414214 1.414214-1.789267 1.03916-2 .530406-2 0-2-.530406-1.789267-1.03916-1.414214-1.414214-1.03916-1.789267-.530406-2 0-2Z"/>
</g>
<g clip-path="url(#clip_12)">
<path transform="matrix(1,0,0,-1,77.16807,90.79863)" d="M0-2C.530406-2 1.03916-1.789267 1.414214-1.414214 1.789267-1.03916 2-.530406 2 0 2 .530406 1.789267 1.03916 1.414214 1.414214 1.03916 1.789267 .530406 2 0 2-.530406 2-1.03916 1.789267-1.414214 1.414214-1.789267 1.03916-2 .530406-2 0-2-.530406-1.789267-1.03916-1.414214-1.414214-1.03916-1.789267-.530406-2 0-2Z" fill="#009e73"/>
<path transform="matrix(1,0,0,-1,77.16807,90.79863)" stroke-width="1" stroke-linecap="butt" stroke-linejoin="round" fill="none" stroke="#009e73" d="M0-2C.530406-2 1.03916-1.789267 1.414214-1.414214 1.789267-1.03916 2-.530406 2 0 2 .530406 1.789267 1.03916 1.414214 1.414214 1.03916 1.789267 .530406 2 0 2-.530406 2-1.03916 1.789267-1.414214 1.414214-1.789267 1.03916-2 .530406-2 0-2-.530406-1.789267-1.03916-1.414214-1.414214-1.03916-1.789267-.530406-2 0-2Z"/>
</g>
<g clip-path="url(#clip_13)">
<path transform="matrix(1,0,0,-1,99.45898,55.624635)" d="M0-2C.530406-2 1.03916-1.789267 1.414214-1.414214 1.789267-1.03916 2-.530406 2 0 2 .530406 1.789267 1.03916 1.414214 1.414214 1.03916 1.789267 .530406 2 0 2-.530406 2-1.03916 1.789267-1.414214 1.414214-1.789267 1.03916-2 .530406-2 0-2-.530406-1.789267-1.03916-1.414214-1.414214-1.03916-1.789267-.530406-2 0-2Z" fill="#009e73"/>
<path transform="matrix(1,0,0,-1,99.45898,55.624635)" stroke-width="1" stroke-linecap="butt" stroke-linejoin="round" fill="none" stroke="#009e73" d="M0-2C.530406-2 1.03916-1.789267 1.414214-1.414214 1.789267-1.03916 2-.530406 2 0 2 .530406 1.789267 1.03916 1.414214 1.414214 1.03916 1.789267 .530406 2 0 2-.530406 2-1.03916 1.789267-1.414214 1.414214-1.789267 1.03916-2 .530406-2 0-2-.530406-1.789267-1.03916-1.414214-1.414214-1.03916-1.789267-.530406-2 0-2Z"/>
</g>
<g clip-path="url(#clip_14)">
<path transform="matrix(1,0,0,-1,121.749889,51.712434)" d="M0-2C.530406-2 1.03916-1.789267 1.414214-1.414214 1.789267-1.03916 2-.530406 2 0 2 .530406 1.789267 1.03916 1.414214 1.414214 1.03916 1.789267 .530406 2 0 2-.530406 2-1.03916 1.789267-1.414214 1.414214-1.789267 1.03916-2 .530406-2 0-2-.530406-1.789267-1.03916-1.414214-1.414214-1.03916-1.789267-.530406-2 0-2Z" fill="#009e73"/>
<path transform="matrix(1,0,0,-1,121.749889,51.712434)" stroke-width="1" stroke-linecap="butt" stroke-linejoin="round" fill="none" stroke="#009e73" d="M0-2C.530406-2 1.03916-1.789267 1.414214-1.414214 1.789267-1.03916 2-.530406 2 0 2 .530406 1.789267 1.03916 1.414214 1.414214 1.03916 1.789267 .530406 2 0 2-.530406 2-1.03916 1.789267-1.414214 1.414214-1.789267 1.03916-2 .530406-2 0-2-.530406-1.789267-1.03916-1.414214-1.414214-1.03916-1.789267-.530406-2 0-2Z"/>
</g>
<g clip-path="url(#clip_15)">
<path transform="matrix(1,0,0,-1,144.0408,40.00826)" d="M0-2C.530406-2 1.03916-1.789267 1.414214-1.414214 1.789267-1.03916 2-.530406 2 0 2 .530406 1.789267 1.03916 1.414214 1.414214 1.03916 1.789267 .530406 2 0 2-.530406 2-1.03916 1.789267-1.414214 1.414214-1.789267 1.03916-2 .530406-2 0-2-.530406-1.789267-1.03916-1.414214-1.414214-1.03916-1.789267-.530406-2 0-2Z" fill="#009e73"/>
<path transform="matrix(1,0,0,-1,144.0408,40.00826)" stroke-width="1" stroke-linecap="butt" stroke-linejoin="round" fill="none" stroke="#009e73" d="M0-2C.530406-2 1.03916-1.789267 1.414214-1.414214 1.789267-1.03916 2-.530406 2 0 2 .530406 1.789267 1.03916 1.414214 1.414214 1.03916 1.789267 .530406 2 0 2-.530406 2-1.03916 1.789267-1.414214 1.414214-1.789267 1.03916-2 .530406-2 0-2-.530406-1.789267-1.03916-1.414214-1.414214-1.03916-1.789267-.530406-2 0-2Z"/>
</g>
<g clip-path="url(#clip_16)">
<path transform="matrix(1,0,0,-1,166.33171,39.315214)" d="M0-2C.530406-2 1.03916-1.789267 1.414214-1.414214 1.789267-1.03916 2-.530406 2 0 2 .530406 1.789267 1.03916 1.414214 1.414214 1.03916 1.789267 .530406 2 0 2-.530406 2-1.03916 1.789267-1.414214 1.414214-1.789267 1.03916-2 .530406-2 0-2-.530406-1.789267-1.03916-1.414214-1.414214-1.03916-1.789267-.530406-2 0-2Z" fill="#009e73"/>
<path transform="matrix(1,0,0,-1,166.33171,39.315214)" stroke-width="1" stroke-linecap="butt" stroke-linejoin="round" fill="none" stroke="#009e73" d="M0-2C.530406-2 1.03916-1.789267 1.414214-1.414214 1.789267-1.03916 2-.530406 2 0 2 .530406 1.789267 1.03916 1.414214 1.414214 1.03916 1.789267 .530406 2 0 2-.530406 2-1.03916 1.789267-1.414214 1.414214-1.789267 1.03916-2 .530406-2 0-2-.530406-1.789267-1.03916-1.414214-1.414214-1.03916-1.789267-.530406-2 0-2Z"/>
</g>
<g clip-path="url(#clip_17)">
<path transform="matrix(1,0,0,-1,188.62262,32.271268)" d="M0-2C.530406-2 1.03916-1.789267 1.414214-1.414214 1.789267-1.03916 2-.530406 2 0 2 .530406 1.789267 1.03916 1.414214 1.414214 1.03916 1.789267 .530406 2 0 2-.530406 2-1.03916 1.789267-1.414214 1.414214-1.789267 1.03916-2 .530406-2 0-2-.530406-1.789267-1.03916-1.414214-1.414214-1.03916-1.789267-.530406-2 0-2Z" fill="#009e73"/>
<path transform="matrix(1,0,0,-1,188.62262,32.271268)" stroke-width="1" stroke-linecap="butt" stroke-linejoin="round" fill="none" stroke="#009e73" d="M0-2C.530406-2 1.03916-1.789267 1.414214-1.414214 1.789267-1.03916 2-.530406 2 0 2 .530406 1.789267 1.03916 1.414214 1.414214 1.03916 1.789267 .530406 2 0 2-.530406 2-1.03916 1.789267-1.414214 1.414214-1.789267 1.03916-2 .530406-2 0-2-.530406-1.789267-1.03916-1.414214-1.414214-1.03916-1.789267-.530406-2 0-2Z"/>
</g>
<g clip-path="url(#clip_18)">
<path transform="matrix(1,0,0,-1,210.91353,29.025832)" d="M0-2C.530406-2 1.03916-1.789267 1.414214-1.414214 1.789267-1.03916 2-.530406 2 0 2 .530406 1.789267 1.03916 1.414214 1.414214 1.03916 1.789267 .530406 2 0 2-.530406 2-1.03916 1.789267-1.414214 1.414214-1.789267 1.03916-2 .530406-2 0-2-.530406-1.789267-1.03916-1.414214-1.414214-1.03916-1.789267-.530406-2 0-2Z" fill="#009e73"/>
<path transform="matrix(1,0,0,-1,210.91353,29.025832)" stroke-width="1" stroke-linecap="butt" stroke-linejoin="round" fill="none" stroke="#009e73" d="M0-2C.530406-2 1.03916-1.789267 1.414214-1.414214 1.789267-1.03916 2-.530406 2 0 2 .530406 1.789267 1.03916 1.414214 1.414214 1.03916 1.789267 .530406 2 0 2-.530406 2-1.03916 1.789267-1.414214 1.414214-1.789267 1.03916-2 .530406-2 0-2-.530406-1.789267-1.03916-1.414214-1.414214-1.03916-1.789267-.530406-2 0-2Z"/>
</g>
<g clip-path="url(#clip_19)">
<path transform="matrix(1,0,0,-1,233.20444,27.906018)" d="M0-2C.530406-2 1.03916-1.789267 1.414214-1.414214 1.789267-1.03916 2-.530406 2 0 2 .530406 1.789267 1.03916 1.414214 1.414214 1.03916 1.789267 .530406 2 0 2-.530406 2-1.03916 1.789267-1.414214 1.414214-1.789267 1.03916-2 .530406-2 0-2-.530406-1.789267-1.03916-1.414214-1.414214-1.03916-1.789267-.530406-2 0-2Z" fill="#009e73"/>
<path transform="matrix(1,0,0,-1,233.20444,27.906018)" stroke-width="1" stroke-linecap="butt" stroke-linejoin="round" fill="none" stroke="#009e73" d="M0-2C.530406-2 1.03916-1.789267 1.414214-1.414214 1.789267-1.03916 2-.530406 2 0 2 .530406 1.789267 1.03916 1.414214 1.414214 1.03916 1.789267 .530406 2 0 2-.530406 2-1.03916 1.789267-1.414214 1.414214-1.789267 1.03916-2 .530406-2 0-2-.530406-1.789267-1.03916-1.414214-1.414214-1.03916-1.789267-.530406-2 0-2Z"/>
</g>
<g clip-path="url(#clip_20)">
<path transform="matrix(1,0,0,-1,255.49535,27.95902)" d="M0-2C.530406-2 1.03916-1.789267 1.414214-1.414214 1.789267-1.03916 2-.530406 2 0 2 .530406 1.789267 1.03916 1.414214 1.414214 1.03916 1.789267 .530406 2 0 2-.530406 2-1.03916 1.789267-1.414214 1.414214-1.789267 1.03916-2 .530406-2 0-2-.530406-1.789267-1.03916-1.414214-1.414214-1.03916-1.789267-.530406-2 0-2Z" fill="#009e73"/>
<path transform="matrix(1,0,0,-1,255.49535,27.95902)" stroke-width="1" stroke-linecap="butt" stroke-linejoin="round" fill="none" stroke="#009e73" d="M0-2C.530406-2 1.03916-1.789267 1.414214-1.414214 1.789267-1.03916 2-.530406 2 0 2 .530406 1.789267 1.03916 1.414214 1.414214 1.03916 1.789267 .530406 2 0 2-.530406 2-1.03916 1.789267-1.414214 1.414214-1.789267 1.03916-2 .530406-2 0-2-.530406-1.789267-1.03916-1.414214-1.414214-1.03916-1.789267-.530406-2 0-2Z"/>
</g>
</g>
<path transform="matrix(1,0,0,-1,0,195.7525)" stroke-width=".8" stroke-linecap="square" stroke-miterlimit="10" stroke-linejoin="miter" fill="none" stroke="#000000" d="M44.84625 32.2525V194.3125"/>
<path transform="matrix(1,0,0,-1,0,195.7525)" stroke-width=".8" stroke-linecap="square" stroke-miterlimit="10" stroke-linejoin="miter" fill="none" stroke="#000000" d="M44.84625 32.2525H265.52626"/>
<path transform="matrix(1,0,0,-1,0,195.7525)" stroke-width="1" stroke-linecap="square" stroke-linejoin="round" fill="none" stroke="#009e73" d="M95.83875 57.78375H105.83875 115.83875"/>
<path transform="matrix(1,0,0,-1,0,195.7525)" d="M105.83875 55.78375C106.369159 55.78375 106.87791 55.994485 107.25296 56.369539 107.62801 56.74459 107.83875 57.253347 107.83875 57.78375 107.83875 58.314157 107.62801 58.82291 107.25296 59.197965 106.87791 59.573019 106.369159 59.78375 105.83875 59.78375 105.30834 59.78375 104.79959 59.573019 104.42454 59.197965 104.049488 58.82291 103.83875 58.314157 103.83875 57.78375 103.83875 57.253347 104.049488 56.74459 104.42454 56.369539 104.79959 55.994485 105.30834 55.78375 105.83875 55.78375Z" fill="#009e73"/>
<path transform="matrix(1,0,0,-1,0,195.7525)" stroke-width="1" stroke-linecap="butt" stroke-linejoin="round" fill="none" stroke="#009e73" d="M105.83875 55.78375C106.369159 55.78375 106.87791 55.994485 107.25296 56.369539 107.62801 56.74459 107.83875 57.253347 107.83875 57.78375 107.83875 58.314157 107.62801 58.82291 107.25296 59.197965 106.87791 59.573019 106.369159 59.78375 105.83875 59.78375 105.30834 59.78375 104.79959 59.573019 104.42454 59.197965 104.049488 58.82291 103.83875 58.314157 103.83875 57.78375 103.83875 57.253347 104.049488 56.74459 104.42454 56.369539 104.79959 55.994485 105.30834 55.78375 105.83875 55.78375Z"/>
<path transform="matrix(.010000001,0,0,-.010000001,123.83875,141.46875)" d="M55 0V52H148V677H50V729H262L518 210 774 729H973V677H876V52H969V0H684V52H777V615L527 107H458L208 615V52H301V0H55Z"/>
<path transform="matrix(.010000001,0,0,-.010000001,134.07875,141.46875)" d="M398 163V273H282C237 273 204 263 182 244 160 224 150 195 150 156 150 120 161 91 183 70 205 48 235 38 273 38 310 38 340 49 363 72 386 95 398 125 398 163ZM488 324V52H568V0H398V56C378 32 355 14 329 3 303-7 272-13 238-13 180-13 134 2 100 32 66 62 50 104 50 156 50 209 69 250 108 280 146 310 201 325 272 325H398V361C398 400 386 430 362 452 338 474 304 485 261 485 225 485 197 476 176 460 154 444 141 420 136 388H90V493C121 506 151 516 181 523 210 529 239 533 267 533 339 533 393 515 431 479 469 443 488 392 488 324Z"/>
<path transform="matrix(.010000001,0,0,-.010000001,140.03876,141.46875)" d="M205 285V234C205 171 217 123 241 91 265 58 299 42 345 42 391 42 425 60 449 97 473 133 485 188 485 260 485 332 473 386 449 422 425 458 391 477 345 477 299 477 265 460 241 427 217 394 205 347 205 285ZM115 467H29V519H205V438C222 470 244 494 272 510 299 525 333 533 373 533 437 533 489 507 529 457 569 407 590 341 590 260 590 178 569 112 529 62 489 12 437-13 373-13 333-13 299-5 272 9 244 24 222 48 205 81V-155H290V-207H29V-155H115V467Z"/>
<path transform="matrix(.010000001,0,0,-.010000001,146.43875,141.46875)" d="M247 371H376C424 371 461 384 487 410 512 436 525 474 525 524 525 574 512 612 487 638 461 664 424 677 376 677H247V371ZM55 0V52H148V677H55V729H400C472 729 530 710 573 673 615 636 637 586 637 524 637 461 615 411 573 374 530 337 472 319 400 319H247V52H360V0H55Z"/>
<path transform="matrix(.010000001,0,0,-.010000001,153.16876,141.46875)" d="M55 0V52H148V677H55V729H652V567H592V669H247V425H496V516H556V274H496V365H247V52H364V0H55Z"/>
<path transform="matrix(.010000001,0,0,-.010000001,160.10875,141.46875)" d="M49 0V52H147V677H49V729H236L673 154V677H575V729H831V677H733V-13H674L207 600V52H305V0H49Z"/>
<path transform="matrix(.010000001,0,0,-.010000001,168.85875,141.46875)" d=""/>
<path transform="matrix(.010000001,0,0,-.010000001,172.03876,141.46875)" d="M319-155C239-119 179-63 139 13 99 89 79 186 79 302 79 418 99 514 139 591 179 668 239 724 319 760V712C269 677 233 628 211 566 189 503 178 415 178 302 178 188 189 100 211 38 233-24 269-72 319-107V-155Z"/>
<path transform="matrix(.010000001,0,0,-.010000001,175.93875,141.46875)" d="M191 0V52H284V671H70V557H10V729H657V557H597V671H383V52H476V0H191Z"/>
<path transform="matrix(.010000001,0,0,-.010000001,182.78064,141.46875)" d="M191 0V52H284V671H70V557H10V729H657V557H597V671H383V52H476V0H191Z"/>
<path transform="matrix(.010000001,0,0,-.010000001,188.90375,141.46875)" d="M200 264H468L334 611 200 264ZM-5 0V52H58L318 729H400L660 52H732V0H467V52H548L487 212H180L119 52H199V0H-5Z"/>
<path transform="matrix(.010000001,0,0,-.010000001,196.12375,141.46875)" d="M36-96C66-73 89-47 103-17 117 13 125 49 125 93V111H221C218 55 205 7 181-32 157-71 122-105 75-135L36-96Z"/>
<path transform="matrix(.010000001,0,0,-.010000001,199.30376,141.46875)" d=""/>
<path transform="matrix(.010000001,0,0,-.010000001,202.48377,141.46875)" d="M142 0V52H269V658L122 563V627L300 742H367V52H494V0H142Z"/>
<path transform="matrix(.010000001,0,0,-.010000001,208.84375,141.46875)" d="M318 34C368 34 405 61 430 116 454 170 467 253 467 364 467 474 454 557 430 612 405 666 368 694 318 694 268 694 230 666 206 612 181 557 169 474 169 364 169 253 181 170 206 116 230 61 268 34 318 34ZM318-13C238-13 176 20 132 86 88 152 66 244 66 364 66 483 88 576 132 642 176 708 238 742 318 742 397 742 459 708 503 642 547 576 570 483 570 364 570 244 547 152 503 86 459 20 397-13 318-13Z"/>
<path transform="matrix(.010000001,0,0,-.010000001,215.20377,141.46875)" d="M318 34C368 34 405 61 430 116 454 170 467 253 467 364 467 474 454 557 430 612 405 666 368 694 318 694 268 694 230 666 206 612 181 557 169 474 169 364 169 253 181 170 206 116 230 61 268 34 318 34ZM318-13C238-13 176 20 132 86 88 152 66 244 66 364 66 483 88 576 132 642 176 708 238 742 318 742 397 742 459 708 503 642 547 576 570 483 570 364 570 244 547 152 503 86 459 20 397-13 318-13Z"/>
<path transform="matrix(.010000001,0,0,-.010000001,221.56375,141.46875)" d=""/>
<path transform="matrix(.010000001,0,0,-.010000001,224.74376,141.46875)" d="M525 467V11C525-63 504-120 463-160 422-200 364-221 288-221 254-221 221-218 190-212 158-206 128-196 100-184V-75H147C153-109 166-133 188-149 210-165 241-173 282-173 334-173 373-158 398-128 422-98 435-51 435 11V81C417 48 395 24 368 9 340-5 307-13 267-13 203-13 150 12 110 62 70 112 50 178 50 260 50 341 70 407 110 457 150 507 203 533 267 533 307 533 340 525 368 510 395 494 417 470 435 438V519H611V467H525ZM435 285C435 347 423 394 399 427 375 460 340 477 295 477 249 477 214 458 190 422 166 386 155 332 155 260 155 188 166 133 190 97 214 60 249 42 295 42 340 42 375 58 399 91 423 123 435 171 435 234V285Z"/>
<path transform="matrix(.010000001,0,0,-.010000001,231.14377,141.46875)" d="M542 250H155V246C155 176 168 123 194 87 220 51 259 34 311 34 350 34 382 44 408 65 433 85 451 116 461 157H533C519 100 492 57 454 29 415 1 364-13 302-13 226-13 165 11 119 61 73 111 50 177 50 260 50 342 72 408 118 458 163 508 222 533 296 533 374 533 435 508 477 460 519 412 540 342 542 250ZM436 302C434 362 421 408 397 439 373 469 340 485 296 485 254 485 222 469 198 438 174 407 160 362 155 302H436Z"/>
<path transform="matrix(.010000001,0,0,-.010000001,237.06375,141.46875)" d="M41 0V52H122V467H36V519H212V427C228 461 250 488 276 506 302 524 333 533 369 533 426 533 468 516 495 484 522 451 536 400 536 330V52H616V0H368V52H446V302C446 365 438 408 422 432 406 456 379 468 340 468 298 468 266 452 244 422 222 391 212 347 212 289V52H290V0H41Z"/>
<path transform="matrix(.010000001,0,0,-.010000001,243.50376,141.46875)" d="M542 250H155V246C155 176 168 123 194 87 220 51 259 34 311 34 350 34 382 44 408 65 433 85 451 116 461 157H533C519 100 492 57 454 29 415 1 364-13 302-13 226-13 165 11 119 61 73 111 50 177 50 260 50 342 72 408 118 458 163 508 222 533 296 533 374 533 435 508 477 460 519 412 540 342 542 250ZM436 302C434 362 421 408 397 439 373 469 340 485 296 485 254 485 222 469 198 438 174 407 160 362 155 302H436Z"/>
<path transform="matrix(.010000001,0,0,-.010000001,249.42377,141.46875)" d="M56 29V150H108C109 111 121 82 144 63 167 43 201 34 246 34 286 34 317 41 338 57 359 72 370 94 370 123 370 145 362 164 347 178 331 192 299 207 249 223L184 245C139 259 107 277 87 299 67 320 57 347 57 381 57 428 74 465 109 492 144 519 192 533 254 533 281 533 310 529 340 522 370 515 402 505 434 491V378H382C380 411 369 437 347 456 325 475 295 485 257 485 219 485 190 478 171 465 151 451 142 431 142 405 142 383 149 365 164 352 178 339 208 326 252 312L323 290C372 274 407 255 429 232 451 209 462 180 462 144 462 94 443 56 405 28 367 0 316-13 250-13 216-13 184-9 152-3 120 3 88 14 56 29Z"/>
<path transform="matrix(.010000001,0,0,-.010000001,254.55377,141.46875)" d="M71-155V-107C121-72 157-24 179 38 201 100 212 188 212 302 212 415 201 503 179 566 157 628 121 677 71 712V760C150 724 210 668 250 591 290 514 311 418 311 302 311 186 290 89 250 13 210-63 150-119 71-155Z"/>
<path transform="matrix(1,0,0,-1,0,195.7525)" stroke-width="1" stroke-linecap="butt" stroke-dasharray="3.7,1.6" stroke-linejoin="round" fill="none" stroke="#0072b2" d="M95.83875 44.97125H105.83875 115.83875"/>
<path transform="matrix(.010000001,0,0,-.010000001,123.83875,154.28125)" d="M55 0V52H148V677H50V729H262L518 210 774 729H973V677H876V52H969V0H684V52H777V615L527 107H458L208 615V52H301V0H55Z"/>
<path transform="matrix(.010000001,0,0,-.010000001,134.07875,154.28125)" d="M398 163V273H282C237 273 204 263 182 244 160 224 150 195 150 156 150 120 161 91 183 70 205 48 235 38 273 38 310 38 340 49 363 72 386 95 398 125 398 163ZM488 324V52H568V0H398V56C378 32 355 14 329 3 303-7 272-13 238-13 180-13 134 2 100 32 66 62 50 104 50 156 50 209 69 250 108 280 146 310 201 325 272 325H398V361C398 400 386 430 362 452 338 474 304 485 261 485 225 485 197 476 176 460 154 444 141 420 136 388H90V493C121 506 151 516 181 523 210 529 239 533 267 533 339 533 393 515 431 479 469 443 488 392 488 324Z"/>
<path transform="matrix(.010000001,0,0,-.010000001,140.03876,154.28125)" d="M205 285V234C205 171 217 123 241 91 265 58 299 42 345 42 391 42 425 60 449 97 473 133 485 188 485 260 485 332 473 386 449 422 425 458 391 477 345 477 299 477 265 460 241 427 217 394 205 347 205 285ZM115 467H29V519H205V438C222 470 244 494 272 510 299 525 333 533 373 533 437 533 489 507 529 457 569 407 590 341 590 260 590 178 569 112 529 62 489 12 437-13 373-13 333-13 299-5 272 9 244 24 222 48 205 81V-155H290V-207H29V-155H115V467Z"/>
<path transform="matrix(.010000001,0,0,-.010000001,146.43875,154.28125)" d="M247 371H376C424 371 461 384 487 410 512 436 525 474 525 524 525 574 512 612 487 638 461 664 424 677 376 677H247V371ZM55 0V52H148V677H55V729H400C472 729 530 710 573 673 615 636 637 586 637 524 637 461 615 411 573 374 530 337 472 319 400 319H247V52H360V0H55Z"/>
<path transform="matrix(.010000001,0,0,-.010000001,153.16876,154.28125)" d="M55 0V52H148V677H55V729H652V567H592V669H247V425H496V516H556V274H496V365H247V52H364V0H55Z"/>
<path transform="matrix(.010000001,0,0,-.010000001,160.10875,154.28125)" d="M49 0V52H147V677H49V729H236L673 154V677H575V729H831V677H733V-13H674L207 600V52H305V0H49Z"/>
<path transform="matrix(.010000001,0,0,-.010000001,168.85875,154.28125)" d=""/>
<path transform="matrix(.010000001,0,0,-.010000001,172.03876,154.28125)" d="M319-155C239-119 179-63 139 13 99 89 79 186 79 302 79 418 99 514 139 591 179 668 239 724 319 760V712C269 677 233 628 211 566 189 503 178 415 178 302 178 188 189 100 211 38 233-24 269-72 319-107V-155Z"/>
<path transform="matrix(.010000001,0,0,-.010000001,175.93875,154.28125)" d="M503 729V649H169V440C185 452 205 460 228 466 250 472 276 475 304 475 382 475 444 453 490 409 536 365 559 306 559 231 559 153 536 93 490 51 444 8 379-13 296-13 262-13 228-9 193-1 157 6 121 18 85 35V177H140C143 130 158 94 184 70 210 46 248 34 296 34 347 34 386 51 414 85 442 119 456 167 456 231 456 294 442 342 415 376 387 410 348 427 296 427 266 427 240 421 218 411 196 401 176 385 159 363H117V729H503Z"/>
<path transform="matrix(.010000001,0,0,-.010000001,182.29875,154.28125)" d="M318 34C368 34 405 61 430 116 454 170 467 253 467 364 467 474 454 557 430 612 405 666 368 694 318 694 268 694 230 666 206 612 181 557 169 474 169 364 169 253 181 170 206 116 230 61 268 34 318 34ZM318-13C238-13 176 20 132 86 88 152 66 244 66 364 66 483 88 576 132 642 176 708 238 742 318 742 397 742 459 708 503 642 547 576 570 483 570 364 570 244 547 152 503 86 459 20 397-13 318-13Z"/>
<path transform="matrix(.010000001,0,0,-.010000001,188.65876,154.28125)" d=""/>
<path transform="matrix(.010000001,0,0,-.010000001,191.83876,154.28125)" d="M525 467V11C525-63 504-120 463-160 422-200 364-221 288-221 254-221 221-218 190-212 158-206 128-196 100-184V-75H147C153-109 166-133 188-149 210-165 241-173 282-173 334-173 373-158 398-128 422-98 435-51 435 11V81C417 48 395 24 368 9 340-5 307-13 267-13 203-13 150 12 110 62 70 112 50 178 50 260 50 341 70 407 110 457 150 507 203 533 267 533 307 533 340 525 368 510 395 494 417 470 435 438V519H611V467H525ZM435 285C435 347 423 394 399 427 375 460 340 477 295 477 249 477 214 458 190 422 166 386 155 332 155 260 155 188 166 133 190 97 214 60 249 42 295 42 340 42 375 58 399 91 423 123 435 171 435 234V285Z"/>
<path transform="matrix(.010000001,0,0,-.010000001,198.23877,154.28125)" d="M542 250H155V246C155 176 168 123 194 87 220 51 259 34 311 34 350 34 382 44 408 65 433 85 451 116 461 157H533C519 100 492 57 454 29 415 1 364-13 302-13 226-13 165 11 119 61 73 111 50 177 50 260 50 342 72 408 118 458 163 508 222 533 296 533 374 533 435 508 477 460 519 412 540 342 542 250ZM436 302C434 362 421 408 397 439 373 469 340 485 296 485 254 485 222 469 198 438 174 407 160 362 155 302H436Z"/>
<path transform="matrix(.010000001,0,0,-.010000001,204.15876,154.28125)" d="M41 0V52H122V467H36V519H212V427C228 461 250 488 276 506 302 524 333 533 369 533 426 533 468 516 495 484 522 451 536 400 536 330V52H616V0H368V52H446V302C446 365 438 408 422 432 406 456 379 468 340 468 298 468 266 452 244 422 222 391 212 347 212 289V52H290V0H41Z"/>
<path transform="matrix(.010000001,0,0,-.010000001,210.59876,154.28125)" d="M542 250H155V246C155 176 168 123 194 87 220 51 259 34 311 34 350 34 382 44 408 65 433 85 451 116 461 157H533C519 100 492 57 454 29 415 1 364-13 302-13 226-13 165 11 119 61 73 111 50 177 50 260 50 342 72 408 118 458 163 508 222 533 296 533 374 533 435 508 477 460 519 412 540 342 542 250ZM436 302C434 362 421 408 397 439 373 469 340 485 296 485 254 485 222 469 198 438 174 407 160 362 155 302H436Z"/>
<path transform="matrix(.010000001,0,0,-.010000001,216.51877,154.28125)" d="M56 29V150H108C109 111 121 82 144 63 167 43 201 34 246 34 286 34 317 41 338 57 359 72 370 94 370 123 370 145 362 164 347 178 331 192 299 207 249 223L184 245C139 259 107 277 87 299 67 320 57 347 57 381 57 428 74 465 109 492 144 519 192 533 254 533 281 533 310 529 340 522 370 515 402 505 434 491V378H382C380 411 369 437 347 456 325 475 295 485 257 485 219 485 190 478 171 465 151 451 142 431 142 405 142 383 149 365 164 352 178 339 208 326 252 312L323 290C372 274 407 255 429 232 451 209 462 180 462 144 462 94 443 56 405 28 367 0 316-13 250-13 216-13 184-9 152-3 120 3 88 14 56 29Z"/>
<path transform="matrix(.010000001,0,0,-.010000001,221.64876,154.28125)" d="M71-155V-107C121-72 157-24 179 38 201 100 212 188 212 302 212 415 201 503 179 566 157 628 121 677 71 712V760C150 724 210 668 250 591 290 514 311 418 311 302 311 186 290 89 250 13 210-63 150-119 71-155Z"/>
</svg>
