<svg width="125" height="29" viewBox="0 0 125 29" fill="none" xmlns="http://www.w3.org/2000/svg">
<g clip-path="url(#clip0_921_680)">
<path d="M94.2078 2.44186C94.2078 5.03045 98.1217 5.03045 98.1217 2.44186C98.1217 -0.147287 94.2078 -0.147287 94.2078 2.44186Z" fill="#1C1242"/>
<path d="M85.5154 2.74153C85.2276 2.77216 85.0093 3.01559 85.0093 3.30581V6.14285C85.0093 6.20579 84.9582 6.25648 84.896 6.25648H83.0749C82.7621 6.25648 82.5088 6.51049 82.5088 6.82411V8.55039C82.5088 8.86401 82.7621 9.11803 83.0749 9.11803H84.896C84.9582 9.11803 85.0093 9.16872 85.0093 9.23167V14.9225C85.0093 18.2748 86.9115 19.937 89.8199 19.8278C90.6449 19.8055 91.3243 19.6913 92.0671 19.4401C92.3499 19.3443 92.4927 19.034 92.3999 18.7499L91.8449 17.047C91.7371 16.7178 91.3621 16.563 91.0315 16.6655C90.6988 16.7691 90.3527 16.8303 90.0371 16.8303C89.0043 16.8303 88.2977 16.2037 88.2977 14.9225V9.23167C88.2977 9.16872 88.3482 9.11803 88.411 9.11803H91.4549C91.7677 9.11803 92.021 8.86401 92.021 8.55039V6.82411C92.021 6.51049 91.7677 6.25648 91.4549 6.25648H88.4382C88.3754 6.25648 88.3249 6.20579 88.3249 6.14285V3.07297C88.3249 2.7354 88.0332 2.47247 87.6988 2.50812L85.5154 2.74153Z" fill="#1C1242"/>
<path fill-rule="evenodd" clip-rule="evenodd" d="M32.3977 6.29222C32.6637 6.42313 32.9944 6.37579 33.1782 6.14294L33.8405 5.30292C34.0314 5.0606 34.3803 5.01548 34.626 5.20153L36.1697 6.37133C36.4225 6.56295 36.4693 6.92503 36.2736 7.17514L35.4268 8.25525C35.258 8.47083 35.2695 8.77498 35.4336 8.99446C36.2423 10.0757 36.5485 11.2862 36.5485 12.6063C36.5485 13.9828 36.12 15.8261 34.7228 16.992C34.3571 17.2972 34.3511 17.9529 34.7306 18.2403C36.122 19.2959 36.4942 20.6417 36.4942 22.0628C36.4942 25.7688 33.6676 28.0582 29.781 28.0582C26.1013 28.0582 23.2986 25.9325 23.0107 22.6304C22.9835 22.3179 23.2398 22.0628 23.5526 22.0628H25.7087C26.0215 22.0628 26.268 22.3201 26.3337 22.6265C26.6387 24.0492 28.0921 24.951 29.781 24.951C31.6835 24.951 33.1783 23.9155 33.1783 22.0628C33.1783 20.2095 31.439 19.3644 29.781 19.3644C25.5955 19.3644 22.9863 16.8031 22.9863 12.6063C22.9863 8.40956 26.0303 5.79311 29.781 5.79311C30.6717 5.79311 31.5816 5.88948 32.3977 6.29222ZM33.2599 12.6063C33.2599 10.2902 31.6835 8.81843 29.781 8.81843C27.8513 8.81843 26.275 10.2629 26.275 12.6063C26.275 14.9498 27.8513 16.3397 29.781 16.3397C31.6835 16.3397 33.2599 14.9225 33.2599 12.6063Z" fill="#1C1242"/>
<path fill-rule="evenodd" clip-rule="evenodd" d="M11.0448 7.76254C11.1112 7.8539 11.2678 7.81435 11.2744 7.70127L11.3294 6.76431C11.347 6.46407 11.5948 6.22956 11.8946 6.22956H13.9744C14.2871 6.22956 14.5407 6.48412 14.5407 6.79718V19.0968C14.5407 19.4104 14.2871 19.665 13.9744 19.665H11.9361C11.6416 19.665 11.3963 19.4383 11.3718 19.1441L11.2864 18.1175C11.2769 18.0022 11.1102 17.9677 11.0465 18.064C10.1624 19.3998 8.27955 20.0482 6.90339 20.0733C2.9353 20.1006 0 17.6479 0 12.9337C0 8.30065 3.0712 5.87527 6.98494 5.90257C8.63078 5.90257 10.208 6.61392 11.0448 7.76254ZM7.28389 17.0212C12.5022 17.0212 12.5022 8.87329 7.28389 8.87329C5.08243 8.87329 3.31581 10.3718 3.31581 12.9337C3.31581 15.4955 5.08243 17.0212 7.28389 17.0212Z" fill="#1C1242"/>
<path d="M20.0987 6.1748C20.4114 6.1748 20.6649 6.42937 20.6649 6.74298V19.0966C20.6649 19.4102 20.4114 19.6648 20.0987 19.6648H17.9153C17.6026 19.6648 17.3491 19.4102 17.3491 19.0966V6.74298C17.3491 6.42937 17.6026 6.1748 17.9153 6.1748H20.0987Z" fill="#1C1242"/>
<path d="M51.8438 19.0967C51.8438 19.4103 51.5903 19.6649 51.2776 19.6649H49.0942C48.7815 19.6649 48.528 19.4103 48.528 19.0967V12.6339C48.528 10.5901 47.4137 9.03648 45.2937 9.03648C43.2553 9.03648 41.8692 10.7533 41.8692 12.7971V19.0967C41.8692 19.4103 41.6157 19.6649 41.303 19.6649H39.1468C38.8341 19.6649 38.5806 19.4103 38.5806 19.0967V6.76986C38.5806 6.4568 38.8341 6.20223 39.1468 6.20223H41.0404C41.3272 6.20223 41.5687 6.41725 41.6027 6.70301L41.7332 7.79928C41.7443 7.89286 41.8583 7.93297 41.9267 7.86836C43.2308 6.6384 44.5471 6.01172 46.1634 6.01172C49.3162 6.01172 51.8438 8.38251 51.8438 12.6066V19.0967Z" fill="#1C1242"/>
<path fill-rule="evenodd" clip-rule="evenodd" d="M54.0681 12.9607C54.0681 9.11826 56.7317 5.95703 60.9989 5.95703C65.2656 5.95703 68.0106 9.11826 68.0106 12.9607C68.0106 16.8305 65.3745 19.9645 61.0261 19.9645C56.6772 19.9645 54.0681 16.8305 54.0681 12.9607ZM64.6678 12.9607C64.6678 10.9442 63.2545 8.98178 61.0261 8.98178C58.6339 8.98178 57.3839 10.9442 57.3839 12.9607C57.3839 15.0045 58.6072 16.9124 61.0261 16.9124C63.445 16.9124 64.6678 15.0045 64.6678 12.9607Z" fill="#1C1242"/>
<path d="M80.4684 7.26478C80.7146 7.45306 80.739 7.80902 80.5384 8.0452L79.4373 9.34368C79.2273 9.59157 78.8557 9.60827 78.5923 9.41832C77.7534 8.81337 76.8123 8.60002 75.7357 8.60002C74.159 8.60002 73.2896 9.09078 73.2896 9.93582C73.2896 10.8076 74.0779 11.2983 75.7901 11.4069C78.3179 11.5707 81.5246 12.1428 81.5246 15.7129C81.5246 18.0837 79.5951 20.1275 75.7629 20.1275C73.7612 20.1275 71.759 19.8116 69.8946 18.0558C69.6984 17.8709 69.6757 17.5701 69.8285 17.3484L70.789 15.9513C70.9968 15.6494 71.4368 15.6193 71.7301 15.8388C72.8168 16.6515 74.5579 17.2158 75.8173 17.2392C77.0673 17.2665 78.2362 16.612 78.2362 15.631C78.2362 14.7046 77.4751 14.3231 75.5723 14.2139C73.0451 14.0234 70.0279 13.0965 70.0279 10.0444C70.0279 6.9378 73.2351 5.84766 75.6812 5.84766C77.5801 5.84766 79.054 6.18467 80.4684 7.26478Z" fill="#1C1242"/>
<path d="M97.2555 6.1748C97.5683 6.1748 97.8216 6.42937 97.8216 6.74298V19.0966C97.8216 19.4102 97.5683 19.6648 97.2555 19.6648H95.0722C94.7594 19.6648 94.5061 19.4102 94.5061 19.0966V6.74298C94.5061 6.42937 94.7594 6.1748 95.0722 6.1748H97.2555Z" fill="#1C1242"/>
<path d="M110.491 16.1591C110.269 15.9418 109.917 15.9485 109.667 16.1318C108.924 16.676 108.04 16.8849 107.156 16.8849C105.09 16.8849 103.351 15.5224 103.351 12.9605C103.351 10.617 104.981 8.9816 107.21 8.9816C107.972 8.9816 108.77 9.22224 109.468 9.70353C109.721 9.87789 110.068 9.86731 110.279 9.64504L111.609 8.2424C111.822 8.01735 111.818 7.66084 111.584 7.45808C110.249 6.29608 108.881 5.84766 107.156 5.84766C103.269 5.84766 100.034 8.19171 100.034 12.9605C100.034 17.7294 103.269 20.0729 107.156 20.0729C108.959 20.0729 110.471 19.5777 111.894 18.341C112.134 18.1327 112.133 17.7651 111.906 17.5428L110.491 16.1591Z" fill="#1C1242"/>
<path d="M124.014 8.0452C124.214 7.80902 124.189 7.45306 123.944 7.26478C122.529 6.18467 121.056 5.84766 119.157 5.84766C116.711 5.84766 113.503 6.9378 113.503 10.0444C113.503 13.0965 116.52 14.0234 119.048 14.2139C120.951 14.3231 121.711 14.7046 121.711 15.631C121.711 16.612 120.543 17.2665 119.292 17.2392C118.033 17.2158 116.292 16.6515 115.206 15.8388C114.912 15.6193 114.472 15.6494 114.264 15.9513L113.304 17.3484C113.151 17.5701 113.174 17.8709 113.37 18.0558C115.234 19.8116 117.236 20.1275 119.238 20.1275C123.071 20.1275 125 18.0837 125 15.7129C125 12.1428 121.793 11.5707 119.266 11.4069C117.553 11.2983 116.765 10.8076 116.765 9.93582C116.765 9.09078 117.634 8.60002 119.211 8.60002C120.288 8.60002 121.229 8.81337 122.068 9.41832C122.331 9.60827 122.703 9.59157 122.913 9.34368L124.014 8.0452Z" fill="#1C1242"/>
<path d="M17.0496 2.44186C17.0496 5.03045 20.9633 5.03045 20.9633 2.44186C20.9633 -0.147287 17.0496 -0.147287 17.0496 2.44186Z" fill="#1C1242"/>
</g>
<defs>
<clipPath id="clip0_921_680">
<rect width="125" height="29" fill="white"/>
</clipPath>
</defs>
</svg>
