<?xml version="1.0" encoding="UTF-8"?>
<svg xmlns="http://www.w3.org/2000/svg" xmlns:xlink="http://www.w3.org/1999/xlink" viewBox="0 0 217.526875 163.10875">
<defs>
<g>
<g id="glyph-0-0">
<path d="M 1.128906 0 L 1.128906 -0.414062 L 2.140625 -0.414062 L 2.140625 -5.234375 L 0.96875 -4.480469 L 0.96875 -4.988281 L 2.386719 -5.902344 L 2.921875 -5.902344 L 2.921875 -0.414062 L 3.929688 -0.414062 L 3.929688 0 Z M 1.128906 0 "/>
</g>
<g id="glyph-0-1">
<path d="M 2.53125 -0.269531 C 2.929688 -0.269531 3.222656 -0.484375 3.421875 -0.921875 C 3.613281 -1.351562 3.714844 -2.011719 3.714844 -2.894531 C 3.714844 -3.769531 3.613281 -4.433594 3.421875 -4.871094 C 3.222656 -5.300781 2.929688 -5.523438 2.53125 -5.523438 C 2.132812 -5.523438 1.828125 -5.300781 1.640625 -4.871094 C 1.441406 -4.433594 1.34375 -3.769531 1.34375 -2.894531 C 1.34375 -2.011719 1.441406 -1.351562 1.640625 -0.921875 C 1.828125 -0.484375 2.132812 -0.269531 2.53125 -0.269531 Z M 2.53125 0.101562 C 1.894531 0.101562 1.398438 -0.160156 1.050781 -0.683594 C 0.699219 -1.210938 0.523438 -1.941406 0.523438 -2.894531 C 0.523438 -3.84375 0.699219 -4.582031 1.050781 -5.109375 C 1.398438 -5.632812 1.894531 -5.902344 2.53125 -5.902344 C 3.160156 -5.902344 3.652344 -5.632812 4.003906 -5.109375 C 4.351562 -4.582031 4.535156 -3.84375 4.535156 -2.894531 C 4.535156 -1.941406 4.351562 -1.210938 4.003906 -0.683594 C 3.652344 -0.160156 3.160156 0.101562 2.53125 0.101562 Z M 2.53125 0.101562 "/>
</g>
<g id="glyph-0-2">
<path d="M 4.003906 -5.800781 L 4.003906 -5.164062 L 1.34375 -5.164062 L 1.34375 -3.5 C 1.472656 -3.597656 1.632812 -3.660156 1.8125 -3.707031 C 1.988281 -3.753906 2.195312 -3.78125 2.417969 -3.78125 C 3.039062 -3.78125 3.53125 -3.605469 3.898438 -3.253906 C 4.265625 -2.902344 4.449219 -2.433594 4.449219 -1.839844 C 4.449219 -1.21875 4.265625 -0.738281 3.898438 -0.40625 C 3.53125 -0.0625 3.015625 0.101562 2.355469 0.101562 C 2.085938 0.101562 1.8125 0.0703125 1.535156 0.0078125 C 1.25 -0.046875 0.960938 -0.144531 0.675781 -0.277344 L 0.675781 -1.410156 L 1.113281 -1.410156 C 1.136719 -1.035156 1.257812 -0.746094 1.464844 -0.558594 C 1.671875 -0.367188 1.972656 -0.269531 2.355469 -0.269531 C 2.761719 -0.269531 3.070312 -0.40625 3.292969 -0.675781 C 3.515625 -0.945312 3.628906 -1.328125 3.628906 -1.839844 C 3.628906 -2.339844 3.515625 -2.722656 3.300781 -2.992188 C 3.078125 -3.261719 2.769531 -3.398438 2.355469 -3.398438 C 2.117188 -3.398438 1.910156 -3.351562 1.734375 -3.269531 C 1.558594 -3.191406 1.398438 -3.0625 1.265625 -2.886719 L 0.929688 -2.886719 L 0.929688 -5.800781 Z M 4.003906 -5.800781 "/>
</g>
<g id="glyph-0-3">
<path d="M 1.019531 -4.414062 L 0.582031 -4.414062 L 0.582031 -5.449219 C 0.851562 -5.59375 1.128906 -5.703125 1.417969 -5.785156 C 1.695312 -5.863281 1.972656 -5.902344 2.242188 -5.902344 C 2.847656 -5.902344 3.324219 -5.753906 3.675781 -5.464844 C 4.027344 -5.171875 4.199219 -4.773438 4.199219 -4.273438 C 4.199219 -3.699219 3.804688 -3.023438 3.007812 -2.234375 C 2.945312 -2.171875 2.902344 -2.132812 2.871094 -2.101562 L 1.410156 -0.636719 L 3.828125 -0.636719 L 3.828125 -1.351562 L 4.28125 -1.351562 L 4.28125 0 L 0.542969 0 L 0.542969 -0.421875 L 2.300781 -2.179688 C 2.679688 -2.5625 2.960938 -2.921875 3.125 -3.246094 C 3.292969 -3.574219 3.382812 -3.914062 3.382812 -4.273438 C 3.382812 -4.664062 3.277344 -4.964844 3.070312 -5.1875 C 2.863281 -5.410156 2.585938 -5.523438 2.234375 -5.523438 C 1.863281 -5.523438 1.574219 -5.425781 1.375 -5.242188 C 1.167969 -5.058594 1.050781 -4.78125 1.019531 -4.414062 Z M 1.019531 -4.414062 "/>
</g>
<g id="glyph-0-4">
<path d="M 0.773438 -5.554688 C 1.074219 -5.664062 1.359375 -5.753906 1.640625 -5.816406 C 1.917969 -5.871094 2.179688 -5.902344 2.425781 -5.902344 C 2.992188 -5.902344 3.4375 -5.777344 3.753906 -5.539062 C 4.074219 -5.292969 4.234375 -4.949219 4.234375 -4.519531 C 4.234375 -4.167969 4.121094 -3.875 3.898438 -3.644531 C 3.675781 -3.40625 3.367188 -3.246094 2.96875 -3.167969 C 3.445312 -3.09375 3.8125 -2.921875 4.074219 -2.640625 C 4.335938 -2.363281 4.472656 -2.003906 4.472656 -1.566406 C 4.472656 -1.027344 4.289062 -0.613281 3.921875 -0.328125 C 3.554688 -0.0390625 3.039062 0.101562 2.355469 0.101562 C 2.054688 0.101562 1.75 0.0703125 1.464844 0.0078125 C 1.175781 -0.046875 0.890625 -0.144531 0.605469 -0.277344 L 0.605469 -1.410156 L 1.042969 -1.410156 C 1.066406 -1.027344 1.195312 -0.746094 1.417969 -0.558594 C 1.640625 -0.367188 1.957031 -0.269531 2.371094 -0.269531 C 2.769531 -0.269531 3.078125 -0.382812 3.308594 -0.613281 C 3.53125 -0.84375 3.652344 -1.160156 3.652344 -1.558594 C 3.652344 -2.011719 3.53125 -2.355469 3.292969 -2.59375 C 3.054688 -2.824219 2.714844 -2.945312 2.257812 -2.945312 L 1.894531 -2.945312 L 1.894531 -3.339844 L 2.085938 -3.339844 C 2.539062 -3.339844 2.878906 -3.429688 3.101562 -3.621094 C 3.324219 -3.8125 3.445312 -4.089844 3.445312 -4.472656 C 3.445312 -4.804688 3.351562 -5.066406 3.167969 -5.25 C 2.976562 -5.425781 2.714844 -5.523438 2.363281 -5.523438 C 2.011719 -5.523438 1.734375 -5.433594 1.542969 -5.265625 C 1.351562 -5.101562 1.242188 -4.851562 1.210938 -4.535156 L 0.773438 -4.535156 Z M 0.773438 -5.554688 "/>
</g>
<g id="glyph-0-5">
<path d="M 2.777344 -1.964844 L 2.777344 -5.050781 L 0.796875 -1.964844 Z M 4.488281 0 L 1.847656 0 L 1.847656 -0.414062 L 2.777344 -0.414062 L 2.777344 -1.550781 L 0.246094 -1.550781 L 0.246094 -1.972656 L 2.785156 -5.902344 L 3.554688 -5.902344 L 3.554688 -1.964844 L 4.664062 -1.964844 L 4.664062 -1.550781 L 3.554688 -1.550781 L 3.554688 -0.414062 L 4.488281 -0.414062 Z M 4.488281 0 "/>
</g>
<g id="glyph-0-6">
<path d="M 0.746094 -0.40625 C 0.746094 -0.550781 0.796875 -0.667969 0.890625 -0.773438 C 0.988281 -0.867188 1.113281 -0.921875 1.265625 -0.921875 C 1.410156 -0.921875 1.527344 -0.867188 1.632812 -0.773438 C 1.726562 -0.667969 1.78125 -0.550781 1.78125 -0.40625 C 1.78125 -0.261719 1.726562 -0.136719 1.632812 -0.0390625 C 1.527344 0.0546875 1.410156 0.101562 1.265625 0.101562 C 1.113281 0.101562 0.988281 0.0546875 0.890625 -0.0390625 C 0.796875 -0.136719 0.746094 -0.253906 0.746094 -0.40625 Z M 0.746094 -0.40625 "/>
</g>
<g id="glyph-0-7">
<path d="M 4.488281 -5.402344 L 2.21875 0 L 1.640625 0 L 3.804688 -5.164062 L 1.121094 -5.164062 L 1.121094 -4.449219 L 0.667969 -4.449219 L 0.667969 -5.800781 L 4.488281 -5.800781 Z M 4.488281 -5.402344 "/>
</g>
<g id="glyph-1-0">
<path d="M 0.4375 0 L 0.4375 -0.464844 L 1.316406 -0.464844 L 1.316406 -6.058594 L 0.4375 -6.058594 L 0.4375 -6.523438 L 2.113281 -6.523438 L 6.023438 -1.378906 L 6.023438 -6.058594 L 5.148438 -6.058594 L 5.148438 -6.523438 L 7.4375 -6.523438 L 7.4375 -6.058594 L 6.5625 -6.058594 L 6.5625 0.117188 L 6.03125 0.117188 L 1.851562 -5.371094 L 1.851562 -0.464844 L 2.730469 -0.464844 L 2.730469 0 Z M 0.4375 0 "/>
</g>
<g id="glyph-1-1">
<path d="M 3.167969 -4.644531 L 4.671875 -4.644531 L 4.671875 -0.464844 L 5.433594 -0.464844 L 5.433594 0 L 3.867188 0 L 3.867188 -0.824219 C 3.714844 -0.511719 3.519531 -0.277344 3.285156 -0.117188 C 3.050781 0.0351562 2.773438 0.117188 2.46875 0.117188 C 1.953125 0.117188 1.566406 -0.0273438 1.324219 -0.3125 C 1.082031 -0.601562 0.964844 -1.066406 0.964844 -1.691406 L 0.964844 -4.179688 L 0.242188 -4.179688 L 0.242188 -4.644531 L 1.773438 -4.644531 L 1.773438 -1.941406 C 1.773438 -1.371094 1.835938 -0.984375 1.976562 -0.777344 C 2.121094 -0.5625 2.363281 -0.464844 2.722656 -0.464844 C 3.097656 -0.464844 3.375 -0.601562 3.570312 -0.878906 C 3.769531 -1.144531 3.867188 -1.546875 3.867188 -2.066406 L 3.867188 -4.179688 L 3.167969 -4.179688 Z M 3.167969 -4.644531 "/>
</g>
<g id="glyph-1-2">
<path d="M 4.636719 -3.742188 C 4.789062 -4.082031 4.984375 -4.332031 5.226562 -4.511719 C 5.46875 -4.679688 5.746094 -4.769531 6.070312 -4.769531 C 6.550781 -4.769531 6.917969 -4.617188 7.160156 -4.3125 C 7.394531 -4.011719 7.519531 -3.5625 7.519531 -2.953125 L 7.519531 -0.464844 L 8.242188 -0.464844 L 8.242188 0 L 6.015625 0 L 6.015625 -0.464844 L 6.714844 -0.464844 L 6.714844 -2.863281 C 6.714844 -3.328125 6.640625 -3.671875 6.5 -3.875 C 6.355469 -4.074219 6.132812 -4.179688 5.808594 -4.179688 C 5.453125 -4.179688 5.171875 -4.035156 4.984375 -3.769531 C 4.796875 -3.5 4.707031 -3.105469 4.707031 -2.585938 L 4.707031 -0.464844 L 5.40625 -0.464844 L 5.40625 0 L 3.203125 0 L 3.203125 -0.464844 L 3.902344 -0.464844 L 3.902344 -2.890625 C 3.902344 -3.355469 3.832031 -3.6875 3.6875 -3.886719 C 3.542969 -4.082031 3.320312 -4.179688 3 -4.179688 C 2.640625 -4.179688 2.363281 -4.035156 2.175781 -3.769531 C 1.988281 -3.5 1.898438 -3.105469 1.898438 -2.585938 L 1.898438 -0.464844 L 2.597656 -0.464844 L 2.597656 0 L 0.367188 0 L 0.367188 -0.464844 L 1.09375 -0.464844 L 1.09375 -4.1875 L 0.320312 -4.1875 L 0.320312 -4.644531 L 1.898438 -4.644531 L 1.898438 -3.820312 C 2.039062 -4.125 2.230469 -4.367188 2.460938 -4.527344 C 2.695312 -4.691406 2.953125 -4.769531 3.25 -4.769531 C 3.605469 -4.769531 3.902344 -4.679688 4.144531 -4.503906 C 4.386719 -4.324219 4.546875 -4.0625 4.636719 -3.742188 Z M 4.636719 -3.742188 "/>
</g>
<g id="glyph-1-3">
<path d="M 1.03125 -0.464844 L 1.03125 -6.335938 L 0.257812 -6.335938 L 0.257812 -6.804688 L 1.835938 -6.804688 L 1.835938 -3.921875 C 1.988281 -4.207031 2.183594 -4.421875 2.433594 -4.566406 C 2.675781 -4.699219 2.980469 -4.769531 3.339844 -4.769531 C 3.910156 -4.769531 4.378906 -4.539062 4.734375 -4.089844 C 5.09375 -3.644531 5.28125 -3.050781 5.28125 -2.328125 C 5.28125 -1.59375 5.09375 -1.003906 4.734375 -0.554688 C 4.378906 -0.105469 3.910156 0.117188 3.339844 0.117188 C 2.980469 0.117188 2.675781 0.0429688 2.433594 -0.0820312 C 2.183594 -0.214844 1.988281 -0.429688 1.835938 -0.726562 L 1.835938 0 L 0.257812 0 L 0.257812 -0.464844 Z M 1.835938 -2.09375 C 1.835938 -1.53125 1.941406 -1.101562 2.15625 -0.816406 C 2.371094 -0.519531 2.675781 -0.375 3.089844 -0.375 C 3.5 -0.375 3.804688 -0.535156 4.019531 -0.867188 C 4.234375 -1.191406 4.339844 -1.683594 4.339844 -2.328125 C 4.339844 -2.972656 4.234375 -3.457031 4.019531 -3.777344 C 3.804688 -4.097656 3.5 -4.269531 3.089844 -4.269531 C 2.675781 -4.269531 2.371094 -4.117188 2.15625 -3.820312 C 1.941406 -3.527344 1.835938 -3.105469 1.835938 -2.550781 Z M 1.835938 -2.09375 "/>
</g>
<g id="glyph-1-4">
<path d="M 4.851562 -2.238281 L 1.386719 -2.238281 L 1.386719 -2.203125 C 1.386719 -1.574219 1.503906 -1.101562 1.738281 -0.777344 C 1.96875 -0.457031 2.316406 -0.304688 2.785156 -0.304688 C 3.132812 -0.304688 3.417969 -0.394531 3.652344 -0.582031 C 3.875 -0.761719 4.035156 -1.039062 4.125 -1.40625 L 4.769531 -1.40625 C 4.644531 -0.894531 4.402344 -0.511719 4.0625 -0.257812 C 3.714844 -0.0078125 3.257812 0.117188 2.703125 0.117188 C 2.023438 0.117188 1.476562 -0.0976562 1.066406 -0.546875 C 0.652344 -0.992188 0.449219 -1.585938 0.449219 -2.328125 C 0.449219 -3.0625 0.644531 -3.652344 1.054688 -4.097656 C 1.460938 -4.546875 1.988281 -4.769531 2.648438 -4.769531 C 3.347656 -4.769531 3.894531 -4.546875 4.269531 -4.117188 C 4.644531 -3.6875 4.832031 -3.0625 4.851562 -2.238281 Z M 3.902344 -2.703125 C 3.886719 -3.242188 3.769531 -3.652344 3.554688 -3.929688 C 3.339844 -4.199219 3.042969 -4.339844 2.648438 -4.339844 C 2.273438 -4.339844 1.988281 -4.199219 1.773438 -3.921875 C 1.558594 -3.644531 1.433594 -3.242188 1.386719 -2.703125 Z M 3.902344 -2.703125 "/>
</g>
<g id="glyph-1-5">
<path d="M 4.277344 -4.65625 L 4.277344 -3.492188 L 3.8125 -3.492188 C 3.796875 -3.722656 3.734375 -3.894531 3.625 -4.011719 C 3.507812 -4.117188 3.339844 -4.179688 3.125 -4.179688 C 2.730469 -4.179688 2.425781 -4.035156 2.210938 -3.769531 C 1.996094 -3.492188 1.898438 -3.097656 1.898438 -2.585938 L 1.898438 -0.464844 L 2.828125 -0.464844 L 2.828125 0 L 0.367188 0 L 0.367188 -0.464844 L 1.09375 -0.464844 L 1.09375 -4.1875 L 0.320312 -4.1875 L 0.320312 -4.644531 L 1.898438 -4.644531 L 1.898438 -3.820312 C 2.050781 -4.144531 2.246094 -4.378906 2.496094 -4.539062 C 2.746094 -4.691406 3.050781 -4.769531 3.410156 -4.769531 C 3.535156 -4.769531 3.679688 -4.753906 3.820312 -4.734375 C 3.964844 -4.71875 4.117188 -4.691406 4.277344 -4.65625 Z M 4.277344 -4.65625 "/>
</g>
<g id="glyph-1-6">
</g>
<g id="glyph-1-7">
<path d="M 2.695312 -0.304688 C 3.125 -0.304688 3.445312 -0.472656 3.671875 -0.816406 C 3.886719 -1.15625 4 -1.65625 4 -2.316406 C 4 -2.980469 3.886719 -3.492188 3.671875 -3.832031 C 3.445312 -4.171875 3.125 -4.339844 2.695312 -4.339844 C 2.265625 -4.339844 1.933594 -4.171875 1.71875 -3.832031 C 1.496094 -3.492188 1.386719 -2.980469 1.386719 -2.316406 C 1.386719 -1.65625 1.496094 -1.15625 1.71875 -0.816406 C 1.933594 -0.472656 2.265625 -0.304688 2.695312 -0.304688 Z M 2.695312 0.117188 C 2.015625 0.117188 1.476562 -0.0976562 1.066406 -0.546875 C 0.652344 -0.992188 0.449219 -1.585938 0.449219 -2.328125 C 0.449219 -3.0625 0.644531 -3.652344 1.054688 -4.097656 C 1.46875 -4.546875 2.015625 -4.769531 2.695312 -4.769531 C 3.375 -4.769531 3.910156 -4.546875 4.324219 -4.097656 C 4.734375 -3.652344 4.941406 -3.0625 4.941406 -2.328125 C 4.941406 -1.585938 4.734375 -0.992188 4.324219 -0.546875 C 3.910156 -0.0976562 3.375 0.117188 2.695312 0.117188 Z M 2.695312 0.117188 "/>
</g>
<g id="glyph-1-8">
<path d="M 3.847656 -5.703125 L 3.429688 -5.703125 C 3.417969 -5.917969 3.355469 -6.085938 3.242188 -6.203125 C 3.113281 -6.308594 2.945312 -6.375 2.710938 -6.375 C 2.40625 -6.375 2.203125 -6.285156 2.078125 -6.121094 C 1.953125 -5.960938 1.898438 -5.667969 1.898438 -5.246094 L 1.898438 -4.644531 L 3.195312 -4.644531 L 3.195312 -4.179688 L 1.898438 -4.179688 L 1.898438 -0.464844 L 2.925781 -0.464844 L 2.925781 0 L 0.320312 0 L 0.320312 -0.464844 L 1.09375 -0.464844 L 1.09375 -4.179688 L 0.320312 -4.179688 L 0.320312 -4.644531 L 1.09375 -4.644531 L 1.09375 -5.226562 C 1.09375 -5.746094 1.226562 -6.132812 1.496094 -6.398438 C 1.761719 -6.667969 2.15625 -6.804688 2.683594 -6.804688 C 2.882812 -6.804688 3.070312 -6.785156 3.265625 -6.75 C 3.464844 -6.714844 3.652344 -6.660156 3.847656 -6.589844 Z M 3.847656 -5.703125 "/>
</g>
<g id="glyph-1-9">
<path d="M 6.308594 -1.726562 C 6.113281 -1.117188 5.792969 -0.652344 5.34375 -0.347656 C 4.886719 -0.0351562 4.3125 0.117188 3.625 0.117188 C 3.195312 0.117188 2.792969 0.0429688 2.433594 -0.0976562 C 2.066406 -0.242188 1.746094 -0.449219 1.46875 -0.734375 C 1.136719 -1.054688 0.894531 -1.433594 0.734375 -1.84375 C 0.574219 -2.253906 0.5 -2.730469 0.5 -3.257812 C 0.5 -4.269531 0.789062 -5.085938 1.378906 -5.710938 C 1.960938 -6.328125 2.730469 -6.640625 3.695312 -6.640625 C 4.054688 -6.640625 4.429688 -6.589844 4.832031 -6.5 C 5.226562 -6.410156 5.667969 -6.265625 6.132812 -6.078125 L 6.132812 -4.574219 L 5.640625 -4.574219 C 5.53125 -5.121094 5.308594 -5.523438 4.984375 -5.78125 C 4.664062 -6.042969 4.207031 -6.175781 3.625 -6.175781 C 2.925781 -6.175781 2.398438 -5.925781 2.039062 -5.433594 C 1.683594 -4.933594 1.503906 -4.207031 1.503906 -3.257812 C 1.503906 -2.300781 1.683594 -1.574219 2.039062 -1.082031 C 2.398438 -0.582031 2.925781 -0.339844 3.625 -0.339844 C 4.109375 -0.339844 4.503906 -0.457031 4.824219 -0.6875 C 5.136719 -0.921875 5.363281 -1.261719 5.503906 -1.726562 Z M 6.308594 -1.726562 "/>
</g>
<g id="glyph-1-10">
<path d="M 1.835938 -0.464844 L 2.597656 -0.464844 L 2.597656 0 L 0.257812 0 L 0.257812 -0.464844 L 1.03125 -0.464844 L 1.03125 -6.335938 L 0.257812 -6.335938 L 0.257812 -6.804688 L 1.835938 -6.804688 Z M 1.835938 -0.464844 "/>
</g>
<g id="glyph-1-11">
<path d="M 0.5 -0.257812 L 0.5 -1.34375 L 0.964844 -1.34375 C 0.976562 -0.992188 1.082031 -0.734375 1.289062 -0.5625 C 1.496094 -0.386719 1.800781 -0.304688 2.203125 -0.304688 C 2.558594 -0.304688 2.835938 -0.367188 3.027344 -0.511719 C 3.214844 -0.644531 3.3125 -0.839844 3.3125 -1.101562 C 3.3125 -1.296875 3.242188 -1.46875 3.105469 -1.59375 C 2.960938 -1.71875 2.675781 -1.851562 2.230469 -1.996094 L 1.648438 -2.191406 C 1.246094 -2.316406 0.957031 -2.480469 0.777344 -2.675781 C 0.601562 -2.863281 0.511719 -3.105469 0.511719 -3.410156 C 0.511719 -3.832031 0.664062 -4.164062 0.976562 -4.402344 C 1.289062 -4.644531 1.71875 -4.769531 2.273438 -4.769531 C 2.515625 -4.769531 2.773438 -4.734375 3.042969 -4.671875 C 3.3125 -4.609375 3.597656 -4.519531 3.886719 -4.394531 L 3.886719 -3.382812 L 3.417969 -3.382812 C 3.402344 -3.679688 3.304688 -3.910156 3.105469 -4.082031 C 2.910156 -4.25 2.640625 -4.339844 2.300781 -4.339844 C 1.960938 -4.339844 1.699219 -4.277344 1.53125 -4.164062 C 1.351562 -4.035156 1.269531 -3.859375 1.269531 -3.625 C 1.269531 -3.429688 1.332031 -3.265625 1.46875 -3.152344 C 1.59375 -3.035156 1.863281 -2.917969 2.253906 -2.792969 L 2.890625 -2.597656 C 3.328125 -2.453125 3.644531 -2.28125 3.839844 -2.078125 C 4.035156 -1.871094 4.136719 -1.609375 4.136719 -1.289062 C 4.136719 -0.839844 3.964844 -0.5 3.625 -0.25 C 3.285156 0 2.828125 0.117188 2.238281 0.117188 C 1.933594 0.117188 1.648438 0.0820312 1.359375 0.0273438 C 1.074219 -0.0273438 0.789062 -0.125 0.5 -0.257812 Z M 0.5 -0.257812 "/>
</g>
<g id="glyph-1-12">
<path d="M 1.835938 -2.550781 L 1.835938 -2.09375 C 1.835938 -1.53125 1.941406 -1.101562 2.15625 -0.816406 C 2.371094 -0.519531 2.675781 -0.375 3.089844 -0.375 C 3.5 -0.375 3.804688 -0.535156 4.019531 -0.867188 C 4.234375 -1.191406 4.339844 -1.683594 4.339844 -2.328125 C 4.339844 -2.972656 4.234375 -3.457031 4.019531 -3.777344 C 3.804688 -4.097656 3.5 -4.269531 3.089844 -4.269531 C 2.675781 -4.269531 2.371094 -4.117188 2.15625 -3.820312 C 1.941406 -3.527344 1.835938 -3.105469 1.835938 -2.550781 Z M 1.03125 -4.179688 L 0.257812 -4.179688 L 0.257812 -4.644531 L 1.835938 -4.644531 L 1.835938 -3.921875 C 1.988281 -4.207031 2.183594 -4.421875 2.433594 -4.566406 C 2.675781 -4.699219 2.980469 -4.769531 3.339844 -4.769531 C 3.910156 -4.769531 4.378906 -4.539062 4.734375 -4.089844 C 5.09375 -3.644531 5.28125 -3.050781 5.28125 -2.328125 C 5.28125 -1.59375 5.09375 -1.003906 4.734375 -0.554688 C 4.378906 -0.105469 3.910156 0.117188 3.339844 0.117188 C 2.980469 0.117188 2.675781 0.0429688 2.433594 -0.0820312 C 2.183594 -0.214844 1.988281 -0.429688 1.835938 -0.726562 L 1.835938 1.386719 L 2.597656 1.386719 L 2.597656 1.851562 L 0.257812 1.851562 L 0.257812 1.386719 L 1.03125 1.386719 Z M 1.03125 -4.179688 "/>
</g>
<g id="glyph-1-13">
<path d="M 2.210938 -3.320312 L 3.367188 -3.320312 C 3.796875 -3.320312 4.125 -3.4375 4.359375 -3.671875 C 4.582031 -3.902344 4.699219 -4.242188 4.699219 -4.691406 C 4.699219 -5.136719 4.582031 -5.476562 4.359375 -5.710938 C 4.125 -5.945312 3.796875 -6.058594 3.367188 -6.058594 L 2.210938 -6.058594 Z M 0.492188 0 L 0.492188 -0.464844 L 1.324219 -0.464844 L 1.324219 -6.058594 L 0.492188 -6.058594 L 0.492188 -6.523438 L 3.582031 -6.523438 C 4.226562 -6.523438 4.742188 -6.355469 5.128906 -6.023438 C 5.503906 -5.691406 5.703125 -5.246094 5.703125 -4.691406 C 5.703125 -4.125 5.503906 -3.679688 5.128906 -3.347656 C 4.742188 -3.015625 4.226562 -2.855469 3.582031 -2.855469 L 2.210938 -2.855469 L 2.210938 -0.464844 L 3.222656 -0.464844 L 3.222656 0 Z M 0.492188 0 "/>
</g>
<g id="glyph-1-14">
<path d="M 0.964844 -4.179688 L 0.257812 -4.179688 L 0.257812 -4.644531 L 0.964844 -4.644531 L 0.964844 -6.085938 L 1.773438 -6.085938 L 1.773438 -4.644531 L 3.285156 -4.644531 L 3.285156 -4.179688 L 1.773438 -4.179688 L 1.773438 -1.226562 C 1.773438 -0.832031 1.808594 -0.574219 1.890625 -0.464844 C 1.960938 -0.359375 2.101562 -0.304688 2.308594 -0.304688 C 2.515625 -0.304688 2.667969 -0.367188 2.765625 -0.492188 C 2.855469 -0.617188 2.910156 -0.816406 2.917969 -1.09375 L 3.527344 -1.09375 C 3.5 -0.664062 3.382812 -0.359375 3.175781 -0.171875 C 2.972656 0.0195312 2.660156 0.117188 2.238281 0.117188 C 1.773438 0.117188 1.441406 0.0078125 1.253906 -0.1875 C 1.054688 -0.386719 0.964844 -0.734375 0.964844 -1.226562 Z M 0.964844 -4.179688 "/>
</g>
<g id="glyph-1-15">
<path d="M 3.5625 -1.460938 L 3.5625 -2.445312 L 2.523438 -2.445312 C 2.121094 -2.445312 1.824219 -2.355469 1.628906 -2.183594 C 1.433594 -2.003906 1.34375 -1.746094 1.34375 -1.394531 C 1.34375 -1.074219 1.441406 -0.816406 1.636719 -0.625 C 1.835938 -0.429688 2.101562 -0.339844 2.445312 -0.339844 C 2.773438 -0.339844 3.042969 -0.4375 3.25 -0.644531 C 3.457031 -0.851562 3.5625 -1.117188 3.5625 -1.460938 Z M 4.367188 -2.898438 L 4.367188 -0.464844 L 5.085938 -0.464844 L 5.085938 0 L 3.5625 0 L 3.5625 -0.5 C 3.382812 -0.285156 3.175781 -0.125 2.945312 -0.0273438 C 2.710938 0.0625 2.433594 0.117188 2.128906 0.117188 C 1.609375 0.117188 1.199219 -0.0195312 0.894531 -0.285156 C 0.589844 -0.554688 0.449219 -0.929688 0.449219 -1.394531 C 0.449219 -1.871094 0.617188 -2.238281 0.964844 -2.507812 C 1.308594 -2.773438 1.800781 -2.910156 2.433594 -2.910156 L 3.5625 -2.910156 L 3.5625 -3.230469 C 3.5625 -3.582031 3.457031 -3.847656 3.242188 -4.046875 C 3.027344 -4.242188 2.722656 -4.339844 2.335938 -4.339844 C 2.015625 -4.339844 1.761719 -4.261719 1.574219 -4.117188 C 1.378906 -3.972656 1.261719 -3.757812 1.21875 -3.472656 L 0.804688 -3.472656 L 0.804688 -4.414062 C 1.082031 -4.527344 1.351562 -4.617188 1.621094 -4.679688 C 1.878906 -4.734375 2.140625 -4.769531 2.390625 -4.769531 C 3.035156 -4.769531 3.519531 -4.609375 3.859375 -4.289062 C 4.199219 -3.964844 4.367188 -3.507812 4.367188 -2.898438 Z M 4.367188 -2.898438 "/>
</g>
<g id="glyph-1-16">
<path d="M 0.867188 -6.085938 C 0.867188 -6.222656 0.914062 -6.335938 1.011719 -6.4375 C 1.109375 -6.535156 1.226562 -6.589844 1.371094 -6.589844 C 1.496094 -6.589844 1.609375 -6.535156 1.710938 -6.4375 C 1.808594 -6.335938 1.863281 -6.222656 1.863281 -6.085938 C 1.863281 -5.945312 1.808594 -5.828125 1.71875 -5.738281 C 1.621094 -5.640625 1.503906 -5.59375 1.371094 -5.59375 C 1.226562 -5.59375 1.109375 -5.640625 1.011719 -5.738281 C 0.914062 -5.828125 0.867188 -5.945312 0.867188 -6.085938 Z M 1.898438 -0.464844 L 2.660156 -0.464844 L 2.660156 0 L 0.320312 0 L 0.320312 -0.464844 L 1.09375 -0.464844 L 1.09375 -4.179688 L 0.320312 -4.179688 L 0.320312 -4.644531 L 1.898438 -4.644531 Z M 1.898438 -0.464844 "/>
</g>
<g id="glyph-1-17">
<path d="M 0.367188 0 L 0.367188 -0.464844 L 1.09375 -0.464844 L 1.09375 -4.179688 L 0.320312 -4.179688 L 0.320312 -4.644531 L 1.898438 -4.644531 L 1.898438 -3.820312 C 2.039062 -4.125 2.238281 -4.367188 2.46875 -4.527344 C 2.703125 -4.691406 2.980469 -4.769531 3.304688 -4.769531 C 3.8125 -4.769531 4.1875 -4.617188 4.429688 -4.332031 C 4.671875 -4.035156 4.796875 -3.582031 4.796875 -2.953125 L 4.796875 -0.464844 L 5.515625 -0.464844 L 5.515625 0 L 3.292969 0 L 3.292969 -0.464844 L 3.992188 -0.464844 L 3.992188 -2.703125 C 3.992188 -3.265625 3.921875 -3.652344 3.777344 -3.867188 C 3.632812 -4.082031 3.390625 -4.1875 3.042969 -4.1875 C 2.667969 -4.1875 2.382812 -4.046875 2.183594 -3.777344 C 1.988281 -3.5 1.898438 -3.105469 1.898438 -2.585938 L 1.898438 -0.464844 L 2.597656 -0.464844 L 2.597656 0 Z M 0.367188 0 "/>
</g>
<g id="glyph-2-0">
<path d="M 0 -6.820312 L 0 -6.105469 L -5.308594 -4.609375 L 0 -3.113281 L 0 -2.398438 L -6.058594 -0.6875 L -6.058594 -0.0429688 L -6.523438 -0.0429688 L -6.523438 -2.425781 L -6.058594 -2.425781 L -6.058594 -1.609375 L -1.234375 -2.972656 L -6.523438 -4.457031 L -6.523438 -5.164062 L -1.179688 -6.675781 L -6.058594 -8.046875 L -6.058594 -7.296875 L -6.523438 -7.296875 L -6.523438 -9.175781 L -6.058594 -9.175781 L -6.058594 -8.53125 Z M 0 -6.820312 "/>
</g>
<g id="glyph-2-1">
<path d="M -1.460938 -3.5625 L -2.445312 -3.5625 L -2.445312 -2.523438 C -2.445312 -2.121094 -2.355469 -1.824219 -2.183594 -1.628906 C -2.003906 -1.433594 -1.746094 -1.34375 -1.394531 -1.34375 C -1.074219 -1.34375 -0.816406 -1.441406 -0.625 -1.636719 C -0.429688 -1.835938 -0.339844 -2.101562 -0.339844 -2.445312 C -0.339844 -2.773438 -0.4375 -3.042969 -0.644531 -3.25 C -0.851562 -3.457031 -1.117188 -3.5625 -1.460938 -3.5625 Z M -2.898438 -4.367188 L -0.464844 -4.367188 L -0.464844 -5.085938 L 0 -5.085938 L 0 -3.5625 L -0.5 -3.5625 C -0.285156 -3.382812 -0.125 -3.175781 -0.0273438 -2.945312 C 0.0625 -2.710938 0.117188 -2.433594 0.117188 -2.128906 C 0.117188 -1.609375 -0.0195312 -1.199219 -0.285156 -0.894531 C -0.554688 -0.589844 -0.929688 -0.449219 -1.394531 -0.449219 C -1.871094 -0.449219 -2.238281 -0.617188 -2.507812 -0.964844 C -2.773438 -1.308594 -2.910156 -1.800781 -2.910156 -2.433594 L -2.910156 -3.5625 L -3.230469 -3.5625 C -3.582031 -3.5625 -3.847656 -3.457031 -4.046875 -3.242188 C -4.242188 -3.027344 -4.339844 -2.722656 -4.339844 -2.335938 C -4.339844 -2.015625 -4.261719 -1.761719 -4.117188 -1.574219 C -3.972656 -1.378906 -3.757812 -1.261719 -3.472656 -1.21875 L -3.472656 -0.804688 L -4.414062 -0.804688 C -4.527344 -1.082031 -4.617188 -1.351562 -4.679688 -1.621094 C -4.734375 -1.878906 -4.769531 -2.140625 -4.769531 -2.390625 C -4.769531 -3.035156 -4.609375 -3.519531 -4.289062 -3.859375 C -3.964844 -4.199219 -3.507812 -4.367188 -2.898438 -4.367188 Z M -2.898438 -4.367188 "/>
</g>
<g id="glyph-2-2">
<path d="M -0.257812 -0.5 L -1.34375 -0.5 L -1.34375 -0.964844 C -0.992188 -0.976562 -0.734375 -1.082031 -0.5625 -1.289062 C -0.386719 -1.496094 -0.304688 -1.800781 -0.304688 -2.203125 C -0.304688 -2.558594 -0.367188 -2.835938 -0.511719 -3.027344 C -0.644531 -3.214844 -0.839844 -3.3125 -1.101562 -3.3125 C -1.296875 -3.3125 -1.46875 -3.242188 -1.59375 -3.105469 C -1.71875 -2.960938 -1.851562 -2.675781 -1.996094 -2.230469 L -2.191406 -1.648438 C -2.316406 -1.246094 -2.480469 -0.957031 -2.675781 -0.777344 C -2.863281 -0.601562 -3.105469 -0.511719 -3.410156 -0.511719 C -3.832031 -0.511719 -4.164062 -0.664062 -4.402344 -0.976562 C -4.644531 -1.289062 -4.769531 -1.71875 -4.769531 -2.273438 C -4.769531 -2.515625 -4.734375 -2.773438 -4.671875 -3.042969 C -4.609375 -3.3125 -4.519531 -3.597656 -4.394531 -3.886719 L -3.382812 -3.886719 L -3.382812 -3.417969 C -3.679688 -3.402344 -3.910156 -3.304688 -4.082031 -3.105469 C -4.25 -2.910156 -4.339844 -2.640625 -4.339844 -2.300781 C -4.339844 -1.960938 -4.277344 -1.699219 -4.164062 -1.53125 C -4.035156 -1.351562 -3.859375 -1.269531 -3.625 -1.269531 C -3.429688 -1.269531 -3.265625 -1.332031 -3.152344 -1.46875 C -3.035156 -1.59375 -2.917969 -1.863281 -2.792969 -2.253906 L -2.597656 -2.890625 C -2.453125 -3.328125 -2.28125 -3.644531 -2.078125 -3.839844 C -1.871094 -4.035156 -1.609375 -4.136719 -1.289062 -4.136719 C -0.839844 -4.136719 -0.5 -3.964844 -0.25 -3.625 C 0 -3.285156 0.117188 -2.828125 0.117188 -2.238281 C 0.117188 -1.933594 0.0820312 -1.648438 0.0273438 -1.359375 C -0.0273438 -1.074219 -0.125 -0.789062 -0.257812 -0.5 Z M -0.257812 -0.5 "/>
</g>
<g id="glyph-2-3">
<path d="M -2.238281 -4.851562 L -2.238281 -1.386719 L -2.203125 -1.386719 C -1.574219 -1.386719 -1.101562 -1.503906 -0.777344 -1.738281 C -0.457031 -1.96875 -0.304688 -2.316406 -0.304688 -2.785156 C -0.304688 -3.132812 -0.394531 -3.417969 -0.582031 -3.652344 C -0.761719 -3.875 -1.039062 -4.035156 -1.40625 -4.125 L -1.40625 -4.769531 C -0.894531 -4.644531 -0.511719 -4.402344 -0.257812 -4.0625 C -0.0078125 -3.714844 0.117188 -3.257812 0.117188 -2.703125 C 0.117188 -2.023438 -0.0976562 -1.476562 -0.546875 -1.066406 C -0.992188 -0.652344 -1.585938 -0.449219 -2.328125 -0.449219 C -3.0625 -0.449219 -3.652344 -0.644531 -4.097656 -1.054688 C -4.546875 -1.460938 -4.769531 -1.988281 -4.769531 -2.648438 C -4.769531 -3.347656 -4.546875 -3.894531 -4.117188 -4.269531 C -3.6875 -4.644531 -3.0625 -4.832031 -2.238281 -4.851562 Z M -2.703125 -3.902344 C -3.242188 -3.886719 -3.652344 -3.769531 -3.929688 -3.554688 C -4.199219 -3.339844 -4.339844 -3.042969 -4.339844 -2.648438 C -4.339844 -2.273438 -4.199219 -1.988281 -3.921875 -1.773438 C -3.644531 -1.558594 -3.242188 -1.433594 -2.703125 -1.386719 Z M -2.703125 -3.902344 "/>
</g>
<g id="glyph-2-4">
<path d="M -4.65625 -4.277344 L -3.492188 -4.277344 L -3.492188 -3.8125 C -3.722656 -3.796875 -3.894531 -3.734375 -4.011719 -3.625 C -4.117188 -3.507812 -4.179688 -3.339844 -4.179688 -3.125 C -4.179688 -2.730469 -4.035156 -2.425781 -3.769531 -2.210938 C -3.492188 -1.996094 -3.097656 -1.898438 -2.585938 -1.898438 L -0.464844 -1.898438 L -0.464844 -2.828125 L 0 -2.828125 L 0 -0.367188 L -0.464844 -0.367188 L -0.464844 -1.09375 L -4.1875 -1.09375 L -4.1875 -0.320312 L -4.644531 -0.320312 L -4.644531 -1.898438 L -3.820312 -1.898438 C -4.144531 -2.050781 -4.378906 -2.246094 -4.539062 -2.496094 C -4.691406 -2.746094 -4.769531 -3.050781 -4.769531 -3.410156 C -4.769531 -3.535156 -4.753906 -3.679688 -4.734375 -3.820312 C -4.71875 -3.964844 -4.691406 -4.117188 -4.65625 -4.277344 Z M -4.65625 -4.277344 "/>
</g>
<g id="glyph-2-5">
<path d="M -4.179688 -0.964844 L -4.179688 -0.257812 L -4.644531 -0.257812 L -4.644531 -0.964844 L -6.085938 -0.964844 L -6.085938 -1.773438 L -4.644531 -1.773438 L -4.644531 -3.285156 L -4.179688 -3.285156 L -4.179688 -1.773438 L -1.226562 -1.773438 C -0.832031 -1.773438 -0.574219 -1.808594 -0.464844 -1.890625 C -0.359375 -1.960938 -0.304688 -2.101562 -0.304688 -2.308594 C -0.304688 -2.515625 -0.367188 -2.667969 -0.492188 -2.765625 C -0.617188 -2.855469 -0.816406 -2.910156 -1.09375 -2.917969 L -1.09375 -3.527344 C -0.664062 -3.5 -0.359375 -3.382812 -0.171875 -3.175781 C 0.0195312 -2.972656 0.117188 -2.660156 0.117188 -2.238281 C 0.117188 -1.773438 0.0078125 -1.441406 -0.1875 -1.253906 C -0.386719 -1.054688 -0.734375 -0.964844 -1.226562 -0.964844 Z M -4.179688 -0.964844 "/>
</g>
<g id="glyph-2-6">
<path d="M -6.085938 -0.867188 C -6.222656 -0.867188 -6.335938 -0.914062 -6.4375 -1.011719 C -6.535156 -1.109375 -6.589844 -1.226562 -6.589844 -1.371094 C -6.589844 -1.496094 -6.535156 -1.609375 -6.4375 -1.710938 C -6.335938 -1.808594 -6.222656 -1.863281 -6.085938 -1.863281 C -5.945312 -1.863281 -5.828125 -1.808594 -5.738281 -1.71875 C -5.640625 -1.621094 -5.59375 -1.503906 -5.59375 -1.371094 C -5.59375 -1.226562 -5.640625 -1.109375 -5.738281 -1.011719 C -5.828125 -0.914062 -5.945312 -0.867188 -6.085938 -0.867188 Z M -0.464844 -1.898438 L -0.464844 -2.660156 L 0 -2.660156 L 0 -0.320312 L -0.464844 -0.320312 L -0.464844 -1.09375 L -4.179688 -1.09375 L -4.179688 -0.320312 L -4.644531 -0.320312 L -4.644531 -1.898438 Z M -0.464844 -1.898438 "/>
</g>
<g id="glyph-2-7">
<path d="M 0 -0.367188 L -0.464844 -0.367188 L -0.464844 -1.09375 L -4.179688 -1.09375 L -4.179688 -0.320312 L -4.644531 -0.320312 L -4.644531 -1.898438 L -3.820312 -1.898438 C -4.125 -2.039062 -4.367188 -2.238281 -4.527344 -2.46875 C -4.691406 -2.703125 -4.769531 -2.980469 -4.769531 -3.304688 C -4.769531 -3.8125 -4.617188 -4.1875 -4.332031 -4.429688 C -4.035156 -4.671875 -3.582031 -4.796875 -2.953125 -4.796875 L -0.464844 -4.796875 L -0.464844 -5.515625 L 0 -5.515625 L 0 -3.292969 L -0.464844 -3.292969 L -0.464844 -3.992188 L -2.703125 -3.992188 C -3.265625 -3.992188 -3.652344 -3.921875 -3.867188 -3.777344 C -4.082031 -3.632812 -4.1875 -3.390625 -4.1875 -3.042969 C -4.1875 -2.667969 -4.046875 -2.382812 -3.777344 -2.183594 C -3.5 -1.988281 -3.105469 -1.898438 -2.585938 -1.898438 L -0.464844 -1.898438 L -0.464844 -2.597656 L 0 -2.597656 Z M 0 -0.367188 "/>
</g>
<g id="glyph-2-8">
</g>
<g id="glyph-2-9">
<path d="M -0.464844 -2.210938 L -0.464844 -3.027344 C -0.464844 -3.867188 -0.707031 -4.519531 -1.191406 -4.976562 C -1.675781 -5.425781 -2.363281 -5.65625 -3.265625 -5.65625 C -4.171875 -5.65625 -4.859375 -5.425781 -5.34375 -4.976562 C -5.816406 -4.519531 -6.058594 -3.867188 -6.058594 -3.027344 L -6.058594 -2.210938 Z M 0 -0.492188 L -0.464844 -0.492188 L -0.464844 -1.324219 L -6.058594 -1.324219 L -6.058594 -0.492188 L -6.523438 -0.492188 L -6.523438 -3.089844 C -6.523438 -4.214844 -6.238281 -5.09375 -5.667969 -5.71875 C -5.09375 -6.347656 -4.289062 -6.660156 -3.265625 -6.660156 C -2.238281 -6.660156 -1.433594 -6.335938 -0.859375 -5.710938 C -0.285156 -5.085938 0 -4.207031 0 -3.089844 Z M 0 -0.492188 "/>
</g>
<g id="glyph-2-10">
<path d="M -1.394531 -4.601562 C -0.894531 -4.484375 -0.519531 -4.269531 -0.269531 -3.949219 C -0.0078125 -3.625 0.117188 -3.203125 0.117188 -2.695312 C 0.117188 -2.015625 -0.0976562 -1.476562 -0.546875 -1.066406 C -0.992188 -0.652344 -1.585938 -0.449219 -2.328125 -0.449219 C -3.0625 -0.449219 -3.652344 -0.652344 -4.097656 -1.066406 C -4.546875 -1.476562 -4.769531 -2.015625 -4.769531 -2.695312 C -4.769531 -2.980469 -4.734375 -3.277344 -4.664062 -3.570312 C -4.59375 -3.859375 -4.492188 -4.152344 -4.359375 -4.449219 L -3.167969 -4.449219 L -3.167969 -3.984375 C -3.570312 -3.921875 -3.867188 -3.785156 -4.054688 -3.582031 C -4.242188 -3.375 -4.339844 -3.078125 -4.339844 -2.703125 C -4.339844 -2.265625 -4.171875 -1.933594 -3.832031 -1.71875 C -3.492188 -1.496094 -2.988281 -1.386719 -2.316406 -1.386719 C -1.648438 -1.386719 -1.144531 -1.496094 -0.804688 -1.71875 C -0.464844 -1.933594 -0.304688 -2.265625 -0.304688 -2.703125 C -0.304688 -3.042969 -0.394531 -3.320312 -0.574219 -3.527344 C -0.75 -3.734375 -1.03125 -3.875 -1.394531 -3.957031 Z M -1.394531 -4.601562 "/>
</g>
<g id="glyph-3-0">
<path d="M 5.785156 -5.195312 L 5.785156 -5.066406 C 5.640625 -5.035156 5.539062 -5.003906 5.480469 -4.988281 C 5.425781 -4.972656 5.363281 -4.917969 5.300781 -4.820312 C 5.234375 -4.726562 5.179688 -4.628906 5.148438 -4.519531 C 5.117188 -4.40625 5.050781 -4.199219 4.972656 -3.914062 L 3.8125 0.113281 L 3.667969 0.113281 L 1.839844 -4.257812 L 0.929688 -0.898438 C 0.882812 -0.730469 0.859375 -0.589844 0.859375 -0.46875 C 0.859375 -0.359375 0.898438 -0.269531 0.980469 -0.222656 C 1.058594 -0.175781 1.210938 -0.144531 1.417969 -0.128906 L 1.417969 0 L -0.152344 0 L -0.152344 -0.128906 C 0.0703125 -0.160156 0.230469 -0.238281 0.328125 -0.375 C 0.421875 -0.507812 0.542969 -0.828125 0.683594 -1.335938 L 1.613281 -4.636719 C 1.488281 -4.925781 1.265625 -5.066406 0.929688 -5.066406 L 0.929688 -5.195312 L 2.203125 -5.195312 L 3.851562 -1.226562 L 4.695312 -4.3125 C 4.734375 -4.457031 4.757812 -4.574219 4.757812 -4.664062 C 4.757812 -4.804688 4.71875 -4.902344 4.648438 -4.957031 C 4.574219 -5.003906 4.433594 -5.042969 4.210938 -5.066406 L 4.210938 -5.195312 Z M 5.785156 -5.195312 "/>
</g>
<g id="glyph-4-0">
<path d="M 1.480469 -0.429688 L 1.554688 -0.367188 C 1.375 -0.0898438 1.148438 0.0507812 0.878906 0.0507812 C 0.550781 0.0507812 0.390625 -0.183594 0.390625 -0.652344 L 0.390625 -2.328125 L 0.09375 -2.328125 C 0.078125 -2.339844 0.0742188 -2.351562 0.0742188 -2.367188 C 0.0742188 -2.394531 0.101562 -2.429688 0.167969 -2.472656 C 0.304688 -2.550781 0.484375 -2.75 0.707031 -3.070312 C 0.714844 -3.078125 0.730469 -3.101562 0.757812 -3.136719 C 0.785156 -3.167969 0.808594 -3.203125 0.820312 -3.226562 C 0.839844 -3.226562 0.859375 -3.195312 0.859375 -3.152344 L 0.859375 -2.507812 L 1.421875 -2.507812 L 1.421875 -2.328125 L 0.859375 -2.328125 L 0.859375 -0.734375 C 0.859375 -0.558594 0.878906 -0.429688 0.925781 -0.351562 C 0.96875 -0.273438 1.042969 -0.234375 1.148438 -0.234375 C 1.257812 -0.234375 1.371094 -0.296875 1.480469 -0.429688 Z M 1.480469 -0.429688 "/>
</g>
<g id="glyph-4-1">
<path d="M 0.890625 -2.550781 L 0.890625 -2.039062 C 1.03125 -2.238281 1.148438 -2.371094 1.242188 -2.449219 C 1.335938 -2.523438 1.441406 -2.5625 1.558594 -2.5625 C 1.652344 -2.5625 1.726562 -2.535156 1.78125 -2.484375 C 1.839844 -2.429688 1.867188 -2.355469 1.867188 -2.265625 C 1.867188 -2.1875 1.84375 -2.128906 1.804688 -2.082031 C 1.765625 -2.039062 1.714844 -2.015625 1.648438 -2.015625 C 1.578125 -2.015625 1.503906 -2.050781 1.425781 -2.128906 C 1.363281 -2.183594 1.3125 -2.210938 1.28125 -2.210938 C 1.203125 -2.210938 1.113281 -2.15625 1.023438 -2.050781 C 0.9375 -1.9375 0.890625 -1.84375 0.890625 -1.753906 L 0.890625 -0.5 C 0.890625 -0.339844 0.917969 -0.234375 0.984375 -0.179688 C 1.046875 -0.121094 1.175781 -0.0898438 1.363281 -0.0820312 L 1.363281 0 L 0.0273438 0 L 0.0273438 -0.0820312 C 0.207031 -0.117188 0.3125 -0.148438 0.355469 -0.195312 C 0.402344 -0.234375 0.421875 -0.324219 0.421875 -0.46875 L 0.421875 -1.859375 C 0.421875 -1.984375 0.40625 -2.066406 0.378906 -2.117188 C 0.351562 -2.167969 0.300781 -2.195312 0.234375 -2.195312 C 0.171875 -2.195312 0.105469 -2.183594 0.0390625 -2.171875 L 0.0390625 -2.261719 C 0.273438 -2.332031 0.546875 -2.433594 0.863281 -2.5625 Z M 0.890625 -2.550781 "/>
</g>
<g id="glyph-4-2">
<path d="M 2.460938 -0.367188 L 2.460938 -0.210938 C 2.316406 -0.0351562 2.148438 0.0507812 1.960938 0.0507812 C 1.75 0.0507812 1.625 -0.0820312 1.605469 -0.351562 L 1.597656 -0.351562 C 1.359375 -0.0820312 1.089844 0.0507812 0.789062 0.0507812 C 0.613281 0.0507812 0.472656 0 0.367188 -0.101562 C 0.257812 -0.199219 0.207031 -0.339844 0.207031 -0.523438 C 0.207031 -0.78125 0.335938 -0.996094 0.597656 -1.175781 C 0.773438 -1.292969 1.109375 -1.441406 1.597656 -1.625 L 1.597656 -1.925781 C 1.597656 -2.09375 1.554688 -2.214844 1.476562 -2.300781 C 1.398438 -2.382812 1.292969 -2.429688 1.164062 -2.429688 C 1.050781 -2.429688 0.957031 -2.402344 0.886719 -2.34375 C 0.808594 -2.289062 0.773438 -2.226562 0.773438 -2.15625 C 0.773438 -2.121094 0.78125 -2.082031 0.789062 -2.042969 C 0.800781 -2 0.808594 -1.960938 0.808594 -1.921875 C 0.808594 -1.867188 0.78125 -1.808594 0.730469 -1.765625 C 0.679688 -1.714844 0.617188 -1.691406 0.550781 -1.691406 C 0.484375 -1.691406 0.429688 -1.714844 0.382812 -1.765625 C 0.335938 -1.808594 0.3125 -1.871094 0.3125 -1.949219 C 0.3125 -2.128906 0.40625 -2.273438 0.597656 -2.394531 C 0.769531 -2.507812 0.980469 -2.5625 1.238281 -2.5625 C 1.539062 -2.5625 1.753906 -2.476562 1.894531 -2.3125 C 1.960938 -2.234375 2 -2.148438 2.023438 -2.070312 C 2.039062 -1.992188 2.050781 -1.867188 2.050781 -1.691406 L 2.050781 -0.628906 C 2.050781 -0.382812 2.105469 -0.261719 2.222656 -0.261719 C 2.292969 -0.261719 2.371094 -0.296875 2.460938 -0.367188 Z M 1.597656 -0.707031 L 1.597656 -1.492188 C 1.253906 -1.371094 1.019531 -1.246094 0.886719 -1.125 C 0.757812 -1.007812 0.695312 -0.863281 0.695312 -0.695312 C 0.695312 -0.550781 0.730469 -0.445312 0.800781 -0.375 C 0.867188 -0.300781 0.964844 -0.265625 1.082031 -0.265625 C 1.203125 -0.265625 1.308594 -0.296875 1.402344 -0.355469 C 1.480469 -0.414062 1.53125 -0.460938 1.558594 -0.511719 C 1.582031 -0.558594 1.597656 -0.625 1.597656 -0.707031 Z M 1.597656 -0.707031 "/>
</g>
<g id="glyph-4-3">
<path d="M 1.003906 -3.519531 C 1.003906 -3.4375 0.976562 -3.371094 0.917969 -3.3125 C 0.863281 -3.257812 0.789062 -3.234375 0.714844 -3.234375 C 0.636719 -3.234375 0.566406 -3.257812 0.511719 -3.3125 C 0.457031 -3.371094 0.433594 -3.4375 0.433594 -3.519531 C 0.433594 -3.597656 0.460938 -3.664062 0.519531 -3.71875 C 0.574219 -3.777344 0.640625 -3.804688 0.71875 -3.804688 C 0.796875 -3.804688 0.863281 -3.777344 0.917969 -3.71875 C 0.976562 -3.664062 1.003906 -3.597656 1.003906 -3.519531 Z M 1.410156 0 L 0.0898438 0 L 0.0898438 -0.0820312 C 0.277344 -0.09375 0.402344 -0.128906 0.449219 -0.183594 C 0.5 -0.238281 0.527344 -0.367188 0.527344 -0.578125 L 0.527344 -1.84375 C 0.527344 -1.972656 0.511719 -2.0625 0.488281 -2.117188 C 0.460938 -2.167969 0.414062 -2.195312 0.34375 -2.195312 C 0.257812 -2.195312 0.179688 -2.183594 0.113281 -2.167969 L 0.113281 -2.253906 L 0.976562 -2.5625 L 0.996094 -2.539062 L 0.996094 -0.585938 C 0.996094 -0.375 1.019531 -0.246094 1.0625 -0.1875 C 1.109375 -0.132812 1.226562 -0.09375 1.410156 -0.0820312 Z M 1.410156 0 "/>
</g>
<g id="glyph-4-4">
<path d="M 2.703125 0 L 1.542969 0 L 1.546875 -0.0820312 C 1.683594 -0.09375 1.777344 -0.132812 1.820312 -0.199219 C 1.867188 -0.265625 1.894531 -0.394531 1.894531 -0.585938 L 1.894531 -1.691406 C 1.894531 -2.066406 1.753906 -2.253906 1.488281 -2.253906 C 1.390625 -2.253906 1.304688 -2.234375 1.226562 -2.1875 C 1.140625 -2.144531 1.035156 -2.0625 0.914062 -1.9375 L 0.914062 -0.402344 C 0.914062 -0.289062 0.9375 -0.210938 0.984375 -0.167969 C 1.035156 -0.121094 1.128906 -0.09375 1.277344 -0.0820312 L 1.277344 0 L 0.101562 0 L 0.101562 -0.0820312 C 0.238281 -0.09375 0.335938 -0.128906 0.378906 -0.183594 C 0.421875 -0.238281 0.445312 -0.355469 0.445312 -0.523438 L 0.445312 -1.875 C 0.445312 -2.011719 0.429688 -2.105469 0.40625 -2.160156 C 0.378906 -2.210938 0.328125 -2.238281 0.25 -2.238281 C 0.171875 -2.238281 0.121094 -2.226562 0.0898438 -2.214844 L 0.0898438 -2.3125 C 0.34375 -2.382812 0.601562 -2.46875 0.851562 -2.5625 L 0.898438 -2.546875 L 0.898438 -2.109375 L 0.902344 -2.109375 C 1.164062 -2.410156 1.429688 -2.5625 1.703125 -2.5625 C 1.914062 -2.5625 2.078125 -2.484375 2.1875 -2.339844 C 2.300781 -2.1875 2.363281 -1.976562 2.363281 -1.703125 L 2.363281 -0.472656 C 2.363281 -0.324219 2.382812 -0.222656 2.429688 -0.179688 C 2.472656 -0.128906 2.5625 -0.09375 2.703125 -0.0820312 Z M 2.703125 0 "/>
</g>
<g id="glyph-5-0">
<path d="M 5.066406 -2.546875 L 0.382812 -2.546875 L 0.382812 -3.070312 L 5.066406 -3.070312 Z M 5.066406 -0.953125 L 0.382812 -0.953125 L 0.382812 -1.480469 L 5.066406 -1.480469 Z M 5.066406 -0.953125 "/>
</g>
<g id="glyph-5-1">
<path d="M 3.769531 -1.089844 L 3.339844 0 L 0.230469 0 L 0.230469 -0.09375 L 1.648438 -1.597656 C 2.011719 -1.980469 2.285156 -2.339844 2.441406 -2.664062 C 2.601562 -2.984375 2.679688 -3.316406 2.679688 -3.667969 C 2.679688 -4.019531 2.578125 -4.296875 2.386719 -4.496094 C 2.1875 -4.6875 1.917969 -4.789062 1.574219 -4.789062 C 1.289062 -4.789062 1.058594 -4.710938 0.890625 -4.566406 C 0.722656 -4.414062 0.566406 -4.144531 0.40625 -3.753906 L 0.238281 -3.796875 C 0.328125 -4.289062 0.507812 -4.671875 0.78125 -4.957031 C 1.050781 -5.234375 1.425781 -5.378906 1.894531 -5.378906 C 2.332031 -5.378906 2.6875 -5.242188 2.960938 -4.980469 C 3.230469 -4.710938 3.367188 -4.375 3.367188 -3.976562 C 3.367188 -3.375 3.023438 -2.722656 2.347656 -2.003906 L 1.035156 -0.605469 L 2.894531 -0.605469 C 3.070312 -0.605469 3.207031 -0.636719 3.308594 -0.707031 C 3.414062 -0.773438 3.53125 -0.914062 3.660156 -1.136719 Z M 3.769531 -1.089844 "/>
</g>
<g id="glyph-5-2">
<path d="M 3.789062 -2.625 C 3.789062 -2.269531 3.746094 -1.933594 3.683594 -1.613281 C 3.613281 -1.296875 3.507812 -1.011719 3.375 -0.746094 C 3.238281 -0.476562 3.054688 -0.269531 2.816406 -0.121094 C 2.578125 0.0234375 2.300781 0.101562 1.988281 0.101562 C 1.664062 0.101562 1.375 0.0234375 1.136719 -0.136719 C 0.890625 -0.292969 0.699219 -0.515625 0.574219 -0.796875 C 0.4375 -1.066406 0.34375 -1.359375 0.277344 -1.679688 C 0.214844 -1.988281 0.191406 -2.324219 0.191406 -2.671875 C 0.191406 -3.167969 0.246094 -3.605469 0.375 -4.003906 C 0.492188 -4.398438 0.691406 -4.726562 0.980469 -4.988281 C 1.265625 -5.242188 1.605469 -5.378906 2.019531 -5.378906 C 2.539062 -5.378906 2.960938 -5.125 3.292969 -4.613281 C 3.621094 -4.105469 3.789062 -3.4375 3.789062 -2.625 Z M 3.023438 -2.585938 C 3.023438 -3.421875 2.929688 -4.058594 2.753906 -4.503906 C 2.578125 -4.949219 2.316406 -5.171875 1.972656 -5.171875 C 1.640625 -5.171875 1.390625 -4.949219 1.21875 -4.503906 C 1.042969 -4.058594 0.953125 -3.429688 0.953125 -2.617188 C 0.953125 -1.796875 1.042969 -1.167969 1.21875 -0.738281 C 1.390625 -0.308594 1.648438 -0.09375 1.988281 -0.09375 C 2.324219 -0.09375 2.578125 -0.308594 2.753906 -0.738281 C 2.929688 -1.167969 3.023438 -1.789062 3.023438 -2.585938 Z M 3.023438 -2.585938 "/>
</g>
</g>
<clipPath id="clip-0">
<path clip-rule="nonzero" d="M 0.355469 0 L 216.699219 0 L 216.699219 162.222656 L 0.355469 162.222656 Z M 0.355469 0 "/>
</clipPath>
<clipPath id="clip-1">
<path clip-rule="nonzero" d="M 99 1.433594 L 101 1.433594 L 101 133.96875 L 99 133.96875 Z M 99 1.433594 "/>
</clipPath>
</defs>
<g clip-path="url(#clip-0)">
<path fill-rule="nonzero" fill="rgb(100%, 100%, 100%)" fill-opacity="1" d="M 0.355469 162.222656 L 216.699219 162.222656 L 216.699219 0 L 0.355469 0 Z M 0.355469 162.222656 "/>
</g>
<path fill-rule="nonzero" fill="rgb(100%, 100%, 100%)" fill-opacity="1" d="M 38.632812 133.96875 L 215.269531 133.96875 L 215.269531 1.433594 L 38.632812 1.433594 Z M 38.632812 133.96875 "/>
<path fill-rule="nonzero" fill="rgb(0%, 44.7052%, 69.802856%)" fill-opacity="0.2" d="M 46.664062 7.457031 L 46.664062 12.128906 L 73.425781 64.742188 L 100.1875 92.511719 L 126.949219 109.847656 L 153.714844 120.621094 L 180.476562 127.800781 L 207.238281 127.945312 L 207.238281 125.800781 L 180.476562 123.675781 L 153.714844 118.21875 L 126.949219 107.585938 L 100.1875 90.613281 L 73.425781 61.980469 Z M 46.664062 7.457031 "/>
<path fill="none" stroke-width="0.8" stroke-linecap="butt" stroke-linejoin="round" stroke="rgb(0%, 0%, 0%)" stroke-opacity="1" stroke-miterlimit="10" d="M 46.561305 28.407975 L 46.561305 25.407293 " transform="matrix(0.994566, 0, 0, -0.994566, 0.355793, 162.222343)"/>
<g fill="rgb(0%, 0%, 0%)" fill-opacity="1">
<use xlink:href="#glyph-0-0" x="39.063267" y="146.477749"/>
<use xlink:href="#glyph-0-1" x="44.123616" y="146.477749"/>
<use xlink:href="#glyph-0-1" x="49.183966" y="146.477749"/>
</g>
<path fill="none" stroke-width="0.8" stroke-linecap="butt" stroke-linejoin="round" stroke="rgb(0%, 0%, 0%)" stroke-opacity="1" stroke-miterlimit="10" d="M 73.469254 28.407975 L 73.469254 25.407293 " transform="matrix(0.994566, 0, 0, -0.994566, 0.355793, 162.222343)"/>
<g fill="rgb(0%, 0%, 0%)" fill-opacity="1">
<use xlink:href="#glyph-0-0" x="65.826121" y="146.477749"/>
<use xlink:href="#glyph-0-2" x="70.886471" y="146.477749"/>
<use xlink:href="#glyph-0-1" x="75.94682" y="146.477749"/>
</g>
<path fill="none" stroke-width="0.8" stroke-linecap="butt" stroke-linejoin="round" stroke="rgb(0%, 0%, 0%)" stroke-opacity="1" stroke-miterlimit="10" d="M 100.377202 28.407975 L 100.377202 25.407293 " transform="matrix(0.994566, 0, 0, -0.994566, 0.355793, 162.222343)"/>
<g fill="rgb(0%, 0%, 0%)" fill-opacity="1">
<use xlink:href="#glyph-0-3" x="92.588976" y="146.477749"/>
<use xlink:href="#glyph-0-1" x="97.649326" y="146.477749"/>
<use xlink:href="#glyph-0-1" x="102.709675" y="146.477749"/>
</g>
<path fill="none" stroke-width="0.8" stroke-linecap="butt" stroke-linejoin="round" stroke="rgb(0%, 0%, 0%)" stroke-opacity="1" stroke-miterlimit="10" d="M 127.285151 28.407975 L 127.285151 25.407293 " transform="matrix(0.994566, 0, 0, -0.994566, 0.355793, 162.222343)"/>
<g fill="rgb(0%, 0%, 0%)" fill-opacity="1">
<use xlink:href="#glyph-0-3" x="119.351831" y="146.477749"/>
<use xlink:href="#glyph-0-2" x="124.41218" y="146.477749"/>
<use xlink:href="#glyph-0-1" x="129.47253" y="146.477749"/>
</g>
<path fill="none" stroke-width="0.8" stroke-linecap="butt" stroke-linejoin="round" stroke="rgb(0%, 0%, 0%)" stroke-opacity="1" stroke-miterlimit="10" d="M 154.197027 28.407975 L 154.197027 25.407293 " transform="matrix(0.994566, 0, 0, -0.994566, 0.355793, 162.222343)"/>
<g fill="rgb(0%, 0%, 0%)" fill-opacity="1">
<use xlink:href="#glyph-0-4" x="146.114686" y="146.477749"/>
<use xlink:href="#glyph-0-1" x="151.175035" y="146.477749"/>
<use xlink:href="#glyph-0-1" x="156.235385" y="146.477749"/>
</g>
<path fill="none" stroke-width="0.8" stroke-linecap="butt" stroke-linejoin="round" stroke="rgb(0%, 0%, 0%)" stroke-opacity="1" stroke-miterlimit="10" d="M 181.104976 28.407975 L 181.104976 25.407293 " transform="matrix(0.994566, 0, 0, -0.994566, 0.355793, 162.222343)"/>
<g fill="rgb(0%, 0%, 0%)" fill-opacity="1">
<use xlink:href="#glyph-0-4" x="172.877541" y="146.477749"/>
<use xlink:href="#glyph-0-2" x="177.93789" y="146.477749"/>
<use xlink:href="#glyph-0-1" x="182.99824" y="146.477749"/>
</g>
<path fill="none" stroke-width="0.8" stroke-linecap="butt" stroke-linejoin="round" stroke="rgb(0%, 0%, 0%)" stroke-opacity="1" stroke-miterlimit="10" d="M 208.012925 28.407975 L 208.012925 25.407293 " transform="matrix(0.994566, 0, 0, -0.994566, 0.355793, 162.222343)"/>
<g fill="rgb(0%, 0%, 0%)" fill-opacity="1">
<use xlink:href="#glyph-0-5" x="199.640395" y="146.477749"/>
<use xlink:href="#glyph-0-1" x="204.700745" y="146.477749"/>
<use xlink:href="#glyph-0-1" x="209.761094" y="146.477749"/>
</g>
<g fill="rgb(0%, 0%, 0%)" fill-opacity="1">
<use xlink:href="#glyph-1-0" x="50.548097" y="158.925359"/>
<use xlink:href="#glyph-1-1" x="58.380301" y="158.925359"/>
<use xlink:href="#glyph-1-2" x="64.144803" y="158.925359"/>
<use xlink:href="#glyph-1-3" x="72.630436" y="158.925359"/>
<use xlink:href="#glyph-1-4" x="78.359134" y="158.925359"/>
<use xlink:href="#glyph-1-5" x="83.658179" y="158.925359"/>
<use xlink:href="#glyph-1-6" x="87.9368" y="158.925359"/>
<use xlink:href="#glyph-1-7" x="90.783246" y="158.925359"/>
<use xlink:href="#glyph-1-8" x="96.171803" y="158.925359"/>
<use xlink:href="#glyph-1-6" x="99.483706" y="158.925359"/>
<use xlink:href="#glyph-1-9" x="102.330152" y="158.925359"/>
<use xlink:href="#glyph-1-4" x="109.177736" y="158.925359"/>
<use xlink:href="#glyph-1-10" x="114.476781" y="158.925359"/>
<use xlink:href="#glyph-1-10" x="117.34113" y="158.925359"/>
<use xlink:href="#glyph-1-11" x="120.205479" y="158.925359"/>
<use xlink:href="#glyph-1-6" x="124.797388" y="158.925359"/>
<use xlink:href="#glyph-1-12" x="127.643835" y="158.925359"/>
<use xlink:href="#glyph-1-4" x="133.372532" y="158.925359"/>
<use xlink:href="#glyph-1-5" x="138.671578" y="158.925359"/>
<use xlink:href="#glyph-1-6" x="142.950199" y="158.925359"/>
<use xlink:href="#glyph-1-13" x="145.796645" y="158.925359"/>
</g>
<g fill="rgb(0%, 0%, 0%)" fill-opacity="1">
<use xlink:href="#glyph-1-4" x="151.432227" y="158.925359"/>
<use xlink:href="#glyph-1-5" x="156.731272" y="158.925359"/>
<use xlink:href="#glyph-1-14" x="161.009893" y="158.925359"/>
<use xlink:href="#glyph-1-1" x="164.608231" y="158.925359"/>
<use xlink:href="#glyph-1-5" x="170.372733" y="158.925359"/>
<use xlink:href="#glyph-1-3" x="174.651354" y="158.925359"/>
<use xlink:href="#glyph-1-15" x="180.380051" y="158.925359"/>
<use xlink:href="#glyph-1-14" x="185.714901" y="158.925359"/>
<use xlink:href="#glyph-1-16" x="189.313239" y="158.925359"/>
<use xlink:href="#glyph-1-7" x="192.177588" y="158.925359"/>
<use xlink:href="#glyph-1-17" x="197.566144" y="158.925359"/>
</g>
<path fill="none" stroke-width="0.8" stroke-linecap="butt" stroke-linejoin="round" stroke="rgb(0%, 0%, 0%)" stroke-opacity="1" stroke-miterlimit="10" d="M 38.486171 39.703736 L 35.485489 39.703736 " transform="matrix(0.994566, 0, 0, -0.994566, 0.355793, 162.222343)"/>
<g fill="rgb(0%, 0%, 0%)" fill-opacity="1">
<use xlink:href="#glyph-0-3" x="14.437598" y="125.755648"/>
<use xlink:href="#glyph-0-1" x="19.497947" y="125.755648"/>
<use xlink:href="#glyph-0-6" x="24.558297" y="125.755648"/>
<use xlink:href="#glyph-0-1" x="27.088471" y="125.755648"/>
</g>
<path fill="none" stroke-width="0.8" stroke-linecap="butt" stroke-linejoin="round" stroke="rgb(0%, 0%, 0%)" stroke-opacity="1" stroke-miterlimit="10" d="M 38.486171 60.413941 L 35.485489 60.413941 " transform="matrix(0.994566, 0, 0, -0.994566, 0.355793, 162.222343)"/>
<g fill="rgb(0%, 0%, 0%)" fill-opacity="1">
<use xlink:href="#glyph-0-3" x="14.437598" y="105.160688"/>
<use xlink:href="#glyph-0-3" x="19.497947" y="105.160688"/>
<use xlink:href="#glyph-0-6" x="24.558297" y="105.160688"/>
<use xlink:href="#glyph-0-2" x="27.088471" y="105.160688"/>
</g>
<path fill="none" stroke-width="0.8" stroke-linecap="butt" stroke-linejoin="round" stroke="rgb(0%, 0%, 0%)" stroke-opacity="1" stroke-miterlimit="10" d="M 38.486171 81.120219 L 35.485489 81.120219 " transform="matrix(0.994566, 0, 0, -0.994566, 0.355793, 162.222343)"/>
<g fill="rgb(0%, 0%, 0%)" fill-opacity="1">
<use xlink:href="#glyph-0-3" x="14.437598" y="84.565728"/>
<use xlink:href="#glyph-0-2" x="19.497947" y="84.565728"/>
<use xlink:href="#glyph-0-6" x="24.558297" y="84.565728"/>
<use xlink:href="#glyph-0-1" x="27.088471" y="84.565728"/>
</g>
<path fill="none" stroke-width="0.8" stroke-linecap="butt" stroke-linejoin="round" stroke="rgb(0%, 0%, 0%)" stroke-opacity="1" stroke-miterlimit="10" d="M 38.486171 101.826496 L 35.485489 101.826496 " transform="matrix(0.994566, 0, 0, -0.994566, 0.355793, 162.222343)"/>
<g fill="rgb(0%, 0%, 0%)" fill-opacity="1">
<use xlink:href="#glyph-0-3" x="14.437598" y="63.970768"/>
<use xlink:href="#glyph-0-7" x="19.497947" y="63.970768"/>
<use xlink:href="#glyph-0-6" x="24.558297" y="63.970768"/>
<use xlink:href="#glyph-0-2" x="27.088471" y="63.970768"/>
</g>
<path fill="none" stroke-width="0.8" stroke-linecap="butt" stroke-linejoin="round" stroke="rgb(0%, 0%, 0%)" stroke-opacity="1" stroke-miterlimit="10" d="M 38.486171 122.536701 L 35.485489 122.536701 " transform="matrix(0.994566, 0, 0, -0.994566, 0.355793, 162.222343)"/>
<g fill="rgb(0%, 0%, 0%)" fill-opacity="1">
<use xlink:href="#glyph-0-4" x="14.437598" y="43.375808"/>
<use xlink:href="#glyph-0-1" x="19.497947" y="43.375808"/>
<use xlink:href="#glyph-0-6" x="24.558297" y="43.375808"/>
<use xlink:href="#glyph-0-1" x="27.088471" y="43.375808"/>
</g>
<path fill="none" stroke-width="0.8" stroke-linecap="butt" stroke-linejoin="round" stroke="rgb(0%, 0%, 0%)" stroke-opacity="1" stroke-miterlimit="10" d="M 38.486171 143.242978 L 35.485489 143.242978 " transform="matrix(0.994566, 0, 0, -0.994566, 0.355793, 162.222343)"/>
<g fill="rgb(0%, 0%, 0%)" fill-opacity="1">
<use xlink:href="#glyph-0-4" x="14.437598" y="22.780848"/>
<use xlink:href="#glyph-0-3" x="19.497947" y="22.780848"/>
<use xlink:href="#glyph-0-6" x="24.558297" y="22.780848"/>
<use xlink:href="#glyph-0-2" x="27.088471" y="22.780848"/>
</g>
<g fill="rgb(0%, 0%, 0%)" fill-opacity="1">
<use xlink:href="#glyph-2-0" x="8.594525" y="116.293928"/>
</g>
<g fill="rgb(0%, 0%, 0%)" fill-opacity="1">
<use xlink:href="#glyph-2-1" x="8.594525" y="107.869212"/>
<use xlink:href="#glyph-2-2" x="8.594525" y="102.534362"/>
<use xlink:href="#glyph-2-2" x="8.594525" y="97.942453"/>
<use xlink:href="#glyph-2-3" x="8.594525" y="93.350544"/>
<use xlink:href="#glyph-2-4" x="8.594525" y="88.051499"/>
<use xlink:href="#glyph-2-2" x="8.594525" y="83.772878"/>
<use xlink:href="#glyph-2-5" x="8.594525" y="79.180969"/>
<use xlink:href="#glyph-2-3" x="8.594525" y="75.58263"/>
<use xlink:href="#glyph-2-6" x="8.594525" y="70.283585"/>
<use xlink:href="#glyph-2-7" x="8.594525" y="67.419236"/>
<use xlink:href="#glyph-2-8" x="8.594525" y="61.654735"/>
<use xlink:href="#glyph-2-9" x="8.594525" y="58.808288"/>
<use xlink:href="#glyph-2-6" x="8.594525" y="51.629514"/>
<use xlink:href="#glyph-2-2" x="8.594525" y="48.765165"/>
<use xlink:href="#glyph-2-5" x="8.594525" y="44.173256"/>
<use xlink:href="#glyph-2-1" x="8.594525" y="40.574918"/>
<use xlink:href="#glyph-2-7" x="8.594525" y="35.240068"/>
<use xlink:href="#glyph-2-10" x="8.594525" y="29.475566"/>
<use xlink:href="#glyph-2-3" x="8.594525" y="24.462956"/>
</g>
<path fill="none" stroke-width="1.5" stroke-linecap="square" stroke-linejoin="round" stroke="rgb(0%, 44.7052%, 69.802856%)" stroke-opacity="1" stroke-miterlimit="10" d="M 46.561305 153.262271 L 73.469254 99.40317 L 100.377202 71.045939 L 127.285151 53.795945 L 154.197027 43.038264 L 181.104976 36.683416 L 208.012925 35.544414 " transform="matrix(0.994566, 0, 0, -0.994566, 0.355793, 162.222343)"/>
<g clip-path="url(#clip-1)">
<path fill="none" stroke-width="1.2" stroke-linecap="butt" stroke-linejoin="round" stroke="rgb(100%, 41.960144%, 41.960144%)" stroke-opacity="1" stroke-dasharray="4.44 1.92" stroke-miterlimit="10" d="M 100.377202 28.407975 L 100.377202 161.667323 " transform="matrix(0.994566, 0, 0, -0.994566, 0.355793, 162.222343)"/>
</g>
<path fill="none" stroke-width="0.8" stroke-linecap="square" stroke-linejoin="miter" stroke="rgb(0%, 0%, 0%)" stroke-opacity="1" stroke-miterlimit="10" d="M 38.486171 28.407975 L 38.486171 161.667323 " transform="matrix(0.994566, 0, 0, -0.994566, 0.355793, 162.222343)"/>
<path fill="none" stroke-width="0.8" stroke-linecap="square" stroke-linejoin="miter" stroke="rgb(0%, 0%, 0%)" stroke-opacity="1" stroke-miterlimit="10" d="M 38.486171 28.407975 L 216.088059 28.407975 " transform="matrix(0.994566, 0, 0, -0.994566, 0.355793, 162.222343)"/>
<path fill="none" stroke-width="1.2" stroke-linecap="butt" stroke-linejoin="round" stroke="rgb(100%, 41.960144%, 41.960144%)" stroke-opacity="1" stroke-dasharray="4.44 1.92" stroke-miterlimit="10" d="M 150.485451 151.192429 L 166.48647 151.192429 " transform="matrix(0.994566, 0, 0, -0.994566, 0.355793, 162.222343)"/>
<g fill="rgb(0%, 0%, 0%)" fill-opacity="1">
<use xlink:href="#glyph-3-0" x="172.303122" y="14.047617"/>
</g>
<g fill="rgb(0%, 0%, 0%)" fill-opacity="1">
<use xlink:href="#glyph-4-0" x="177.610108" y="15.101235"/>
</g>
<g fill="rgb(0%, 0%, 0%)" fill-opacity="1">
<use xlink:href="#glyph-4-1" x="179.158436" y="15.101235"/>
</g>
<g fill="rgb(0%, 0%, 0%)" fill-opacity="1">
<use xlink:href="#glyph-4-2" x="181.013092" y="15.101235"/>
</g>
<g fill="rgb(0%, 0%, 0%)" fill-opacity="1">
<use xlink:href="#glyph-4-3" x="183.485971" y="15.101235"/>
</g>
<g fill="rgb(0%, 0%, 0%)" fill-opacity="1">
<use xlink:href="#glyph-4-4" x="185.034299" y="15.101235"/>
</g>
<g fill="rgb(0%, 0%, 0%)" fill-opacity="1">
<use xlink:href="#glyph-5-0" x="189.319197" y="14.047617"/>
</g>
<g fill="rgb(0%, 0%, 0%)" fill-opacity="1">
<use xlink:href="#glyph-5-1" x="195.918316" y="14.047617"/>
</g>
<g fill="rgb(0%, 0%, 0%)" fill-opacity="1">
<use xlink:href="#glyph-5-2" x="199.896563" y="14.047617"/>
</g>
<g fill="rgb(0%, 0%, 0%)" fill-opacity="1">
<use xlink:href="#glyph-5-2" x="203.87481" y="14.047617"/>
</g>
</svg>
